<svg width="188" height="54" viewBox="0 0 188 54" fill="none" xmlns="http://www.w3.org/2000/svg">
<g clip-path="url(#clip0)">
<path d="M163.406 41.1775C161.94 39.7984 160.42 38.4702 159.051 37.0065C158.666 36.5976 158.567 35.7968 158.567 35.1605C158.533 29.7073 158.548 24.2541 158.548 18.8009V16.6936H144.818C144.334 17.838 144.706 18.4525 145.938 18.9315C147.178 19.4441 148.351 20.1071 149.429 20.9057C151.016 22.0428 151.74 23.6081 151.703 25.6452C151.616 30.7839 151.674 35.9226 151.674 41.5065L147.227 38.1944C143.76 40.8847 139.863 42.0654 135.588 41.9178C133.086 41.8331 130.725 41.0565 128.971 39.2565C125.202 35.4097 125.284 31.5388 129.409 27.8662C133.333 24.3726 139.57 24.4089 144.435 27.6243C145.038 28.021 145.614 28.4541 146.47 29.0759C146.47 27.3993 146.565 25.9573 146.446 24.5347C146.306 22.8097 144.951 22.321 143.506 22.0283C140.666 21.4549 137.99 22.2533 135.339 23.088C133.715 23.5984 132.131 24.2347 130.357 24.8783L128.952 21.9484C132.435 20.7388 135.772 19.621 139.074 18.4065C139.623 18.2033 140.02 17.5839 140.487 17.1581L140.168 16.6742H120.373V18.6291C120.373 26.8404 120.152 35.0565 120.445 43.2581C120.658 49.1807 116.122 52.5654 111.293 53.6855C107.722 54.513 104.55 53.6855 101.806 51.3364C99.7718 49.5968 99.796 49.0186 101.565 47.0928C102.213 46.3839 102.876 45.6872 103.5 45.0339C103.921 46.4275 104.112 47.8307 104.746 48.992C106.004 51.2928 108.755 52.3791 111.172 51.8251C113.291 51.3412 115.021 49.0646 115.229 46.4759C115.273 45.9267 115.26 45.3726 115.263 44.8234V16.6573H100.674C100.253 17.867 100.652 18.4525 101.799 18.9243C103.143 19.5017 104.409 20.2445 105.569 21.1355C106.955 22.1734 107.608 23.6178 107.584 25.4396C107.516 30.6436 107.56 35.8428 107.56 41.4751L103.081 38.2041C99.6774 40.8872 95.7726 42.0388 91.4952 41.9226C88.9911 41.8525 86.6807 41.0831 84.8903 39.3146C81.0194 35.4896 81.2057 31.3863 85.3742 27.796C89.879 23.9105 97.1105 24.542 101.99 28.9355C102.109 29.0115 102.235 29.0763 102.365 29.1291C102.365 27.8009 102.365 26.5331 102.365 25.2581C102.351 23.3226 101.349 22.0501 99.4016 22.0573C97.1315 22.0864 94.8668 22.2886 92.6274 22.6622C91.3186 22.8678 90.0605 23.446 88.8048 23.9251C86.1024 24.9605 86.1097 24.9799 84.9581 21.9243C88.2702 20.7654 91.5605 19.5436 94.9016 18.4839C95.9419 18.1549 96.3919 17.7872 95.9806 16.5484C91.9331 16.5484 87.8371 16.4686 83.746 16.5896C82.2339 16.6355 81.3726 16.1565 80.7847 14.8138C80.3323 13.7783 79.6984 12.8202 78.9581 11.492H81.4548C115.155 11.492 148.853 11.4759 182.55 11.4436C184.471 11.4436 185.654 11.9275 186.339 13.7226C186.675 14.613 187.253 15.4162 187.865 16.5049H163.498V23.7097C164.168 23.296 164.707 22.9839 165.22 22.6404C168.07 20.6541 170.833 18.3775 174.544 18.3993C180.259 18.4331 184.882 23.4194 183.269 29.4315C182.192 33.4404 179.881 37.1202 178.05 40.9114C177.907 41.2065 177.121 41.4218 176.724 41.3202C175.149 40.9138 174.404 39.3847 175.019 37.6646C175.817 35.4339 176.819 33.2759 177.624 31.0452C177.918 30.1155 178.093 29.1521 178.144 28.1783C178.548 23.7412 174.194 22.1783 171.556 23.6275C168.919 25.0767 166.546 26.8912 164.131 28.6525C163.773 28.9138 163.725 29.7436 163.715 30.3146C163.655 33.9267 163.645 37.5412 163.621 41.1533C163.549 41.1345 163.472 41.1431 163.406 41.1775ZM136.379 38.2743C139.297 38.2452 143.168 37.0888 145.299 35.746C146.993 34.6743 147.07 32.9154 145.326 31.9065C143.966 31.1178 142.519 30.3291 141.01 29.971C138.552 29.4049 135.997 28.9162 133.635 30.5057C132.29 31.4081 131.013 33.8928 131.436 35.2138C131.954 36.842 133.154 37.846 134.85 38.1557C135.356 38.231 135.867 38.2666 136.379 38.2622V38.2743ZM93.4186 38.2743C95.7315 38.163 98.6516 37.188 101.378 35.613C102.588 34.9186 102.944 33.1307 101.949 32.4049C98.8548 30.1501 95.4 28.9186 91.546 29.7436C88.7347 30.3509 86.9492 32.7509 87.2879 35.0347C87.5807 37.0549 89.6032 38.2936 93.4186 38.2646V38.2743Z" fill="#0D0C1F"/>
<path d="M46.9113 25.0548C43.6476 21.3484 39.4669 21.7984 38.0298 26.0032C37.6621 27.0871 37.9911 28.604 38.4508 29.7387C40.1903 34.0355 43.2097 37.3911 46.7589 40.2919C45.15 42.3677 44.9976 42.3967 43.0718 40.8338C39.5081 37.9475 36.4669 34.6088 34.5702 30.3895C33.2032 27.3532 32.7508 24.2419 35.0347 21.3774C38.4508 17.0903 44.1895 17.7484 47.6685 21.4693C48.0363 21.8661 48.3581 22.304 48.6363 22.6379C50.071 21.5637 51.5395 20.6661 52.7298 19.4927C53.3298 18.8951 53.4073 17.7774 53.7992 16.6742H21.9895C21.5831 17.8838 21.871 18.5153 23.1121 19.0669C24.5933 19.7714 25.9667 20.6829 27.1911 21.7742C27.8323 22.3209 28.4419 23.3153 28.4589 24.1185C28.5653 29.7895 28.5145 35.4629 28.5145 41.4532L24.1089 38.1895C20.7387 40.8508 16.9016 41.9855 12.675 41.9346C8.20887 41.879 4.06936 38.9806 3.29032 34.6935C3.00484 33.1282 3.82016 31.0524 4.76855 29.6322C7.5 25.5532 12.4935 24.3895 17.3347 25.9234C19.3766 26.5693 21.271 27.6774 23.3032 28.6088C23.3032 27.283 23.5935 25.7056 23.1992 24.3072C22.9573 23.4193 21.7476 22.3088 20.8597 22.1951C18.9073 21.9476 16.9274 22.0244 15 22.4225C12.3919 22.9645 9.87097 23.9225 7.15887 24.7475L5.90806 21.9532C9.32177 20.7435 12.5613 19.5169 15.8589 18.4693C16.9403 18.1282 17.2645 17.7048 16.8823 16.5629C12.8565 16.5629 8.81855 16.4879 4.78548 16.6016C3.29274 16.6451 2.40242 16.2096 1.81694 14.85C1.36452 13.8024 0.725806 12.8225 0 11.5064H2.39032C23.4653 11.5064 44.5427 11.5306 65.6153 11.4604C67.3887 11.4604 68.4944 11.8814 69.1645 13.5314C69.5516 14.4822 70.1444 15.3484 70.771 16.483H58.6911C58.1008 18.7379 58.1008 18.7379 60.196 19.1613C62.2911 19.5846 64.6476 22.3451 65.2403 24.7766C66.5492 30.1524 64.1516 34.1322 60.5661 37.7056C60.165 38.0831 59.7442 38.4393 59.3056 38.7725C56.129 41.3443 55.8387 41.3153 52.9621 38.2258C54.929 36.5008 56.9565 34.8387 58.8436 33.0314C60.6073 31.3379 61.5557 29.175 61.8919 26.7411C62.279 23.9564 59.0734 21.704 56.1774 23.1121C54.1621 24.0798 52.4782 25.8096 50.7847 27.3484C49.904 28.1492 49.3331 29.2838 48.5371 30.3556L44.9661 27.629C45.6121 26.7725 46.2314 25.9572 46.9113 25.0548ZM13.8435 38.2258L14.0032 38.7096C16.6645 37.7709 19.3766 36.9701 21.9556 35.85C24.0145 34.9572 24 32.804 22.0185 31.7032C20.8109 30.9971 19.5226 30.439 18.1815 30.0411C15.7234 29.3709 13.2169 28.8992 10.8048 30.3363C9.93352 30.8566 9.25191 31.6425 8.86003 32.5787C8.46814 33.5149 8.38662 34.552 8.62742 35.5379C9.1379 37.4274 10.6452 38.0129 12.3823 38.2258C12.8689 38.256 13.3569 38.256 13.8435 38.2258Z" fill="#00D1FF"/>
<path d="M76.6451 40.8145C75.358 39.6049 73.9839 38.4557 72.825 37.1347C72.3774 36.6266 72.2153 35.7145 72.2129 34.9863C72.1693 27.2758 72.2129 19.5629 72.1693 11.8524C72.1925 9.6625 72.0574 7.47374 71.7653 5.30325C71.5064 3.6097 70.7976 1.96696 70.2169 0.0290527C70.7661 0.174214 71.4459 0.220182 71.9879 0.512924C75.2129 2.28631 76.8943 5.21131 76.9718 8.73873C77.2137 19.4274 77.1968 30.1234 77.2839 40.8145H76.6451Z" fill="#0D0C1F"/>
<path d="M121.263 3.12823L117.968 7.04758L114.765 3.19113L118.246 0L121.263 3.12823Z" fill="#0D0C1F"/>
</g>
<defs>
<clipPath id="clip0">
<rect width="187.844" height="54" fill="white"/>
</clipPath>
</defs>
</svg>
