<svg width="354" height="261" viewBox="0 0 354 261" fill="none" xmlns="http://www.w3.org/2000/svg">
<g clip-path="url(#clip0)">
<path opacity="0.1" d="M23.1693 102.298H53.9363V144.14H25.4189C25.3461 144.573 25.2734 145.002 25.1915 145.435H53.9363V179.173C53.8878 179.173 53.8393 179.137 53.7938 179.119C52.9853 178.798 52.1769 178.459 51.3684 178.1C51.1956 178.021 51.0258 177.939 50.8499 177.864C50.0414 177.483 49.2329 177.079 48.4245 176.654C48.1425 176.506 47.8605 176.351 47.5846 176.194C43.0962 173.695 39.0168 170.527 35.4876 166.799C35.3815 166.699 35.2845 166.59 35.1844 166.497C34.6933 165.964 34.2112 165.426 33.7443 164.875C33.5685 164.673 33.3987 164.467 33.2259 164.27C32.6741 163.599 32.1405 162.903 31.6251 162.204C31.5462 162.098 31.4735 161.996 31.3977 161.902C29.2863 158.987 27.5354 155.828 26.1829 152.495C26.1405 152.395 26.1011 152.286 26.0616 152.192C25.6433 151.134 25.2643 150.06 24.9368 148.965C24.7974 148.508 24.6609 148.057 24.5457 147.582C24.5033 147.446 24.4699 147.307 24.4336 147.171C22.7297 140.471 22.5326 133.508 22.5326 126.578C22.5326 125.772 22.5326 124.965 22.5326 124.159C22.5568 121.329 22.5902 118.503 22.6326 115.68C22.6488 114.954 22.664 114.225 22.6781 113.493C22.7206 111.64 22.7812 109.783 22.86 107.921C22.8782 107.407 22.9025 106.89 22.9298 106.379C22.9419 106.082 22.9571 105.786 22.9752 105.49C23.0298 104.419 23.0945 103.355 23.1693 102.298Z" fill="#005BEA"/>
<path opacity="0.1" d="M53.9363 55.7106H37.0581C39.803 51.429 42.8007 47.3141 46.0354 43.3876C48.5457 40.3144 51.1895 37.3199 53.9363 34.4342V55.7106Z" fill="#005BEA"/>
<path opacity="0.1" d="M53.9363 56.9991V101.004H23.2663C23.2663 100.877 23.2845 100.747 23.2966 100.62C23.3239 100.272 23.3512 99.9269 23.3815 99.5791C23.4118 99.1738 23.4512 98.7684 23.4907 98.3692C23.5301 97.9699 23.5695 97.4859 23.618 97.0473C23.6665 96.6087 23.7059 96.1641 23.7544 95.7255C23.8029 95.2869 23.8514 94.8483 23.906 94.4128C23.9606 93.9772 24.0091 93.5356 24.0697 93.1C24.1152 92.74 24.1607 92.3771 24.2122 92.0141C24.282 91.5029 24.3547 90.9917 24.4305 90.4836C24.4305 90.4049 24.4548 90.3293 24.4669 90.2537C25.021 86.534 25.774 82.8466 26.7226 79.2071C27.7188 75.3899 28.9904 71.6496 30.5275 68.0154C32.1609 64.2076 34.0742 60.5255 36.2516 56.9991H53.9363Z" fill="#005BEA"/>
<path opacity="0.1" d="M61.2855 102.298V144.14H127.004V102.298H61.2855ZM61.2855 145.435V181.369C61.6614 181.445 62.0313 181.521 62.4042 181.584C62.9045 181.681 63.4078 181.769 63.9202 181.844L64.2233 181.887C64.4234 181.92 64.6266 181.947 64.8297 181.971C65.336 182.044 65.8423 182.098 66.3456 182.147C66.5821 182.171 66.8277 182.189 67.0672 182.21L67.6523 182.253C67.9707 182.277 68.286 182.295 68.6013 182.307C68.7953 182.307 68.9894 182.322 69.1865 182.328C69.3835 182.334 69.4896 182.328 69.6473 182.328H70.2203C70.481 182.328 70.7418 182.328 70.9995 182.328H71.333C71.5937 182.328 71.8545 182.328 72.1122 182.304H72.1273C72.3092 182.304 72.4881 182.304 72.67 182.283C72.7215 182.286 72.7732 182.286 72.8247 182.283C72.9762 182.283 73.1278 182.283 73.2734 182.265C73.3077 182.262 73.3421 182.262 73.3764 182.265C73.713 182.244 74.0525 182.216 74.3951 182.186C74.7377 182.156 75.0621 182.12 75.4047 182.083L76.093 181.999C78.9053 181.606 81.6863 181.015 84.4154 180.232C90.5488 178.526 96.5427 176.14 102.673 174.394C110.592 172.141 119.348 171.031 127.001 173.774V145.435H61.2855ZM127.004 55.7106V0.00606771C119.809 -0.072901 112.634 0.765709 105.653 2.50152C89.0116 6.6727 74.0677 15.7199 61.2855 27.2745V55.7076H64.5932V56.9991H61.2855V101.004H127.004V56.9991H78.1243V55.7045L127.004 55.7106ZM211.434 36.8934C207.317 36.7482 203.224 35.4506 199.519 33.4391C192.443 29.6006 186.785 23.666 180.467 18.663C167.339 8.23652 151.058 1.94193 134.356 0.381142V55.7106H228.164L228.397 55.4656L211.434 36.8934ZM219.981 35.381L229.043 45.3053V32.7706C225.993 33.1547 223.337 34.0471 219.981 35.3689V35.381ZM229.043 190.293V145.435H209.718C209.67 145.244 209.615 145.051 209.554 144.857C209.612 145.051 209.663 145.244 209.715 145.435H134.356V177.873C135.071 178.402 135.778 178.962 136.478 179.524C137.234 180.141 137.985 180.765 138.731 181.397L139.483 182.017C139.843 182.319 140.21 182.622 140.574 182.909C141.304 183.496 142.038 184.077 142.778 184.651C143.148 184.942 143.52 185.227 143.894 185.507C149.816 190.023 156.062 194.098 162.582 197.7C164.043 198.514 165.52 199.297 167.006 200.063C167.994 200.571 168.989 201.069 169.992 201.557C171.496 202.289 173.012 202.995 174.54 203.674C188.627 209.983 203.524 214.312 218.804 216.536C222.196 217.034 225.603 217.427 229.025 217.715V190.286H229.328L229.043 190.293ZM134.356 56.9991V101.004H229.043V56.9991H134.356ZM134.356 102.292V144.14H229.043V102.298L134.356 102.292ZM236.392 32.7101V46.7149L247.956 34.0501C244.123 33.4189 240.269 32.9722 236.392 32.7101ZM236.392 102.298V144.14H328.484V102.298H236.392ZM328.16 193.611L328.484 145.435H236.392V218.202C242.324 218.448 248.265 218.377 254.189 217.987H254.292C257.122 217.806 259.938 217.548 262.742 217.213H262.805C277.766 215.476 292.394 211.577 306.23 205.64L328.16 193.611ZM346.251 109.171C345.901 108.364 345.542 107.558 345.174 106.751C344.489 105.238 343.768 103.768 343.022 102.301H335.836V144.14H354C353.985 132.289 350.977 120.19 346.251 109.171ZM335.836 145.435V186.875C340.951 181.983 345.277 176.385 348.388 169.984C352.132 162.274 353.845 153.932 353.988 145.432L335.836 145.435ZM335.836 90.1055V100.995H342.349C340.375 97.2514 338.201 93.6165 335.836 90.1055ZM273.381 40.9224C272.901 40.7379 272.419 40.5534 271.937 40.3779C266.855 38.5038 261.66 36.9461 256.384 35.7137L238.684 55.0905L238.339 55.4626L238.566 55.7076H301.561C292.787 49.684 283.327 44.7209 273.381 40.9224ZM303.411 56.9991H237.684L236.392 58.1758V101.004H247.716H328.484V80.2537C321.181 71.4423 312.751 63.6242 303.411 56.9991Z" fill="#005BEA"/>
<path opacity="0.1" d="M53.9363 79.1981V101.004H23.2663C23.2663 100.877 23.2845 100.747 23.2966 100.62C23.3239 100.272 23.3512 99.9269 23.3815 99.5791C23.4118 99.1738 23.4512 98.7684 23.4907 98.3692C23.5301 97.9699 23.5695 97.4859 23.618 97.0473C23.6665 96.6087 23.7059 96.1641 23.7544 95.7255C23.8029 95.2869 23.8514 94.8483 23.906 94.4127C23.9606 93.9772 24.0091 93.5356 24.0697 93.1C24.1152 92.74 24.1607 92.3771 24.2122 92.0141C24.282 91.5029 24.3547 90.9917 24.4305 90.4835C24.4305 90.4049 24.4548 90.3293 24.4669 90.2537C25.021 86.534 25.774 82.8466 26.7226 79.2071L53.9363 79.1981Z" fill="#005BEA"/>
<path opacity="0.1" d="M23.1693 102.298H53.9363V144.14H25.4189C25.3461 144.573 25.2734 145.002 25.1915 145.435H53.9363V179.173C53.8878 179.173 53.8393 179.137 53.7938 179.119C52.9853 178.798 52.1769 178.459 51.3684 178.1C51.1956 178.021 51.0258 177.939 50.8499 177.864C50.0414 177.483 49.2329 177.079 48.4245 176.654C48.1425 176.506 47.8605 176.351 47.5846 176.194C43.0962 173.695 39.0168 170.527 35.4876 166.799C35.3815 166.699 35.2845 166.59 35.1844 166.497C34.6933 165.964 34.2112 165.426 33.7443 164.875C33.5685 164.673 33.3987 164.467 33.2259 164.27C32.6741 163.599 32.1405 162.903 31.6251 162.204C31.5462 162.098 31.4735 161.996 31.3977 161.902C29.2863 158.987 27.5354 155.828 26.1829 152.495C26.1405 152.395 26.1011 152.286 26.0616 152.192C25.6433 151.134 25.2643 150.06 24.9368 148.965C24.7974 148.508 24.6609 148.057 24.5457 147.582C24.5033 147.446 24.4699 147.307 24.4336 147.171C22.7297 140.471 22.5326 133.508 22.5326 126.578C22.5326 125.772 22.5326 124.965 22.5326 124.159C22.5568 121.329 22.5902 118.503 22.6326 115.68C22.6488 114.954 22.664 114.225 22.6781 113.493C22.7206 111.64 22.7812 109.783 22.86 107.921C22.8782 107.407 22.9025 106.89 22.9298 106.379C22.9419 106.082 22.9571 105.786 22.9752 105.49C23.0298 104.419 23.0945 103.355 23.1693 102.298Z" fill="#005BEA"/>
<path opacity="0.1" d="M84.4184 63.3028V101.004H61.2825V63.3028H64.5811V50.5382H78.1213V63.3028H84.4184Z" fill="#005BEA"/>
<path opacity="0.1" d="M84.4154 102.295H61.2825V144.137H84.4154V102.295Z" fill="#005BEA"/>
<path opacity="0.1" d="M61.2855 145.435H84.4184V180.22C81.6896 181.004 78.9085 181.593 76.096 181.983C75.8656 182.017 75.6382 182.044 75.4078 182.068C75.0682 182.107 74.7317 182.144 74.3951 182.174L73.3795 182.256H73.2764L72.8277 182.28H72.6731C72.4911 182.28 72.3123 182.301 72.1304 182.304H72.1152C71.8545 182.304 71.5968 182.322 71.336 182.328H71.0025C70.7448 182.328 70.4871 182.328 70.2233 182.328H69.6534H69.1895C68.9924 182.328 68.7984 182.328 68.6013 182.304C68.29 182.292 67.9747 182.274 67.6554 182.25L67.0702 182.207C66.8277 182.189 66.5851 182.165 66.3456 182.141C65.8363 182.096 65.331 182.039 64.8297 181.968L64.2233 181.884L63.9202 181.841C63.4138 181.766 62.9106 181.681 62.4042 181.584C62.0283 181.518 61.6584 181.442 61.2855 181.363V145.435Z" fill="#005BEA"/>
<path opacity="0.1" d="M229.04 58.8503H209.964V101.001H229.04V58.8503Z" fill="#005BEA"/>
<path opacity="0.1" d="M229.043 102.295V144.14H134.356V126.091H184.79V136.739H209.964V102.295H229.043Z" fill="#005BEA"/>
<path opacity="0.1" d="M229.343 190.302C229.243 190.302 229.143 190.302 229.04 190.283V217.733C225.622 217.453 222.216 217.061 218.823 216.557C203.537 214.334 188.634 210.007 174.54 203.701C170.471 201.87 166.485 199.875 162.582 197.715C156.064 194.111 149.819 190.036 143.897 185.522C142.405 184.385 140.936 183.223 139.489 182.035C138.485 181.206 137.491 180.359 136.478 179.539C135.781 178.974 135.074 178.414 134.356 177.882V145.435H209.715C209.66 145.241 209.612 145.051 209.557 144.857C209.615 145.051 209.67 145.241 209.718 145.435H229.043V190.28C229.143 190.283 229.243 190.293 229.343 190.302Z" fill="#005BEA"/>
<path opacity="0.1" d="M278.795 55.7106H266.365V51.857H271.934V40.3779C272.417 40.5554 272.898 40.7369 273.377 40.9224V51.857H278.792L278.795 55.7106Z" fill="#005BEA"/>
<path opacity="0.1" d="M308.747 101.004H247.716C247.722 101.005 247.728 101.005 247.734 101.004H247.707H236.392V58.8533H239.6V90.0087H254.256V71.5574H266.368V56.9991H278.798V71.5665H290.904V90.0177H308.75L308.747 101.004Z" fill="#005BEA"/>
<path opacity="0.1" d="M236.392 102.298V144.14H308.75V102.298H236.392ZM328.381 193.39L328.484 160.268H308.75V145.447H236.392V218.202C242.324 218.448 248.265 218.377 254.189 217.987H254.292C257.122 217.806 259.938 217.548 262.742 217.213H262.805C277.766 215.476 292.394 211.577 306.23 205.64" fill="#005BEA"/>
<path opacity="0.1" d="M337.11 145.435H353.988C353.842 153.932 352.132 162.277 348.388 169.984C345.277 176.388 340.951 181.986 335.836 186.878V160.259H337.11V145.435Z" fill="#005BEA"/>
<path opacity="0.1" d="M354 144.14H337.11V109.171H346.251C350.977 120.19 353.985 132.289 354 144.14Z" fill="#005BEA"/>
<path opacity="0.1" d="M229.043 70.5684H218.823V83.7837H229.043V70.5684Z" fill="#005BEA"/>
<path opacity="0.1" d="M229.043 97.9608H218.823V101.004H229.043V97.9608Z" fill="#005BEA"/>
<path opacity="0.1" d="M229.043 102.295H218.823V111.173H229.043V102.295Z" fill="#005BEA"/>
<path opacity="0.1" d="M229.043 125.353H218.823V138.569H229.043V125.353Z" fill="#005BEA"/>
<path opacity="0.1" d="M229.043 152.746H218.823V165.961H229.043V152.746Z" fill="#005BEA"/>
<path opacity="0.1" d="M229.043 190.28C229.143 190.28 229.243 190.28 229.346 190.302C229.246 190.302 229.146 190.302 229.043 190.283V193.354H218.823V180.138H229.043V190.28Z" fill="#005BEA"/>
<path opacity="0.1" d="M229.043 207.528V217.733C225.623 217.453 222.216 217.061 218.823 216.557V207.528H229.043Z" fill="#005BEA"/>
<path opacity="0.1" d="M178.157 143.169H134.356V144.14H178.157V143.169Z" fill="#005BEA"/>
<path opacity="0.1" d="M178.157 145.432H134.356V149.152H178.157V145.432Z" fill="#005BEA"/>
<path opacity="0.1" d="M178.157 161.348H134.356V167.331H178.157V161.348Z" fill="#005BEA"/>
<path opacity="0.1" d="M178.157 179.527V185.51H143.897C142.405 184.377 140.936 183.214 139.489 182.02C138.482 181.194 137.488 180.347 136.478 179.527H178.157Z" fill="#005BEA"/>
<path opacity="0.1" d="M178.157 197.703V203.701H174.54C170.471 201.87 166.485 199.875 162.582 197.715L178.157 197.703Z" fill="#005BEA"/>
<path opacity="0.1" d="M262.812 106.352H254.189V114.954H262.812V106.352Z" fill="#005BEA"/>
<path opacity="0.1" d="M76.1172 66.2701H67.4947V74.8726H76.1172V66.2701Z" fill="#005BEA"/>
<path opacity="0.1" d="M76.1172 86.2519H67.4947V94.8544H76.1172V86.2519Z" fill="#005BEA"/>
<path opacity="0.1" d="M76.1172 106.234H67.4947V114.836H76.1172V106.234Z" fill="#005BEA"/>
<path opacity="0.1" d="M76.1172 126.212H67.4947V134.815H76.1172V126.212Z" fill="#005BEA"/>
<path opacity="0.1" d="M76.1172 146.194H67.4947V154.797H76.1172V146.194Z" fill="#005BEA"/>
<path opacity="0.1" d="M76.1172 166.176H67.4947V174.778H76.1172V166.176Z" fill="#005BEA"/>
<path opacity="0.1" d="M295.728 106.352H287.106V114.954H295.728V106.352Z" fill="#005BEA"/>
<path opacity="0.1" d="M262.812 127.57H254.189V136.173H262.812V127.57Z" fill="#005BEA"/>
<path opacity="0.1" d="M295.728 127.57H287.106V136.173H295.728V127.57Z" fill="#005BEA"/>
<path opacity="0.1" d="M262.812 148.786H254.189V157.389H262.812V148.786Z" fill="#005BEA"/>
<path opacity="0.1" d="M295.728 148.786H287.106V157.389H295.728V148.786Z" fill="#005BEA"/>
<path opacity="0.1" d="M262.812 170.005H254.189V178.608H262.812V170.005Z" fill="#005BEA"/>
<path opacity="0.1" d="M295.728 170.005H287.106V178.608H295.728V170.005Z" fill="#005BEA"/>
<path opacity="0.1" d="M262.812 191.224H254.189V199.827H262.812V191.224Z" fill="#005BEA"/>
<path opacity="0.1" d="M295.728 191.224H287.106V199.827H295.728V191.224Z" fill="#005BEA"/>
<path opacity="0.1" d="M254.189 217.988V212.44H262.809V217.198L254.189 217.988Z" fill="#005BEA"/>
<path opacity="0.1" d="M24.4305 90.2446V95.1659H53.9364V90.2446H24.4305ZM27.3684 94.8574H24.9429V90.5562H27.3684V94.8574ZM30.3062 94.8574H27.8808V90.5562H30.3062V94.8574ZM33.238 94.8574H30.8126V90.5562H33.238V94.8574ZM36.1759 94.8574H33.7504V90.5562H36.1759V94.8574ZM39.1107 94.8574H36.6852V90.5562H39.1107V94.8574ZM42.0485 94.8574H39.6231V90.5562H42.0485V94.8574ZM44.9864 94.8574H42.5609V90.5562H44.9864V94.8574ZM47.9212 94.8574H45.4957V90.5562H47.9212V94.8574ZM50.856 94.8574H48.4305V90.5562H50.856V94.8574ZM53.7939 94.8574H51.3684V90.5562H53.7939V94.8574Z" fill="#005BEA"/>
<path opacity="0.1" d="M24.4305 104.57V109.491H53.9364V104.57H24.4305ZM27.3684 109.183H24.9429V104.882H27.3684V109.183ZM30.3062 109.183H27.8808V104.882H30.3062V109.183ZM33.238 109.183H30.8126V104.882H33.238V109.183ZM36.1759 109.183H33.7504V104.882H36.1759V109.183ZM39.1107 109.183H36.6852V104.882H39.1107V109.183ZM42.0485 109.183H39.6231V104.882H42.0485V109.183ZM44.9864 109.183H42.5609V104.882H44.9864V109.183ZM47.9212 109.183H45.4957V104.882H47.9212V109.183ZM50.856 109.183H48.4305V104.882H50.856V109.183ZM53.7939 109.183H51.3684V104.882H53.7939V109.183Z" fill="#005BEA"/>
<path opacity="0.1" d="M24.4305 118.898V123.817H53.9364V118.898H24.4305ZM27.3684 123.505H24.9429V119.204H27.3684V123.505ZM30.3062 123.505H27.8808V119.204H30.3062V123.505ZM33.238 123.505H30.8126V119.204H33.238V123.505ZM36.1759 123.505H33.7504V119.204H36.1759V123.505ZM39.1107 123.505H36.6852V119.204H39.1107V123.505ZM42.0485 123.505H39.6231V119.204H42.0485V123.505ZM44.9864 123.505H42.5609V119.204H44.9864V123.505ZM47.9212 123.505H45.4957V119.204H47.9212V123.505ZM50.856 123.505H48.4305V119.204H50.856V123.505ZM53.7939 123.505H51.3684V119.204H53.7939V123.505Z" fill="#005BEA"/>
<path opacity="0.1" d="M24.4305 133.224V138.142H53.9364V133.224H24.4305ZM27.3684 137.834H24.9429V133.526H27.3684V137.834ZM30.3062 137.834H27.8808V133.526H30.3062V137.834ZM33.238 137.834H30.8126V133.526H33.238V137.834ZM36.1759 137.834H33.7504V133.526H36.1759V137.834ZM39.1107 137.834H36.6852V133.526H39.1107V137.834ZM42.0485 137.834H39.6231V133.526H42.0485V137.834ZM44.9864 137.834H42.5609V133.526H44.9864V137.834ZM47.9212 137.834H45.4957V133.526H47.9212V137.834ZM50.856 137.834H48.4305V133.526H50.856V137.834ZM53.7939 137.834H51.3684V133.526H53.7939V137.834Z" fill="#005BEA"/>
<path opacity="0.1" d="M24.573 147.543C24.6882 148.009 24.8246 148.469 24.9641 148.926V147.855H27.3896V152.153H26.0889C26.1253 152.256 26.1647 152.362 26.2072 152.455H53.9484V147.543H24.573ZM30.3335 152.153H27.908V147.855H30.3335V152.153ZM33.2653 152.153H30.8398V147.855H33.2653V152.153ZM36.2031 152.153H33.7776V147.855H36.2031V152.153ZM39.1379 152.153H36.7125V147.855H39.1379V152.153ZM42.0758 152.153H39.6503V147.855H42.0758V152.153ZM45.0136 152.153H42.5882V147.855H45.0136V152.153ZM47.9484 152.153H45.523V147.855H47.9484V152.153ZM50.8833 152.153H48.4578V147.855H50.8833V152.153ZM53.8211 152.153H51.3956V147.855H53.8211V152.153Z" fill="#005BEA"/>
<path opacity="0.1" d="M31.4068 161.869C31.4856 161.965 31.5584 162.074 31.6342 162.171H33.238V164.237L33.7564 164.842V162.159H36.1819V166.497H35.1844C35.2815 166.596 35.3754 166.702 35.4876 166.799H53.9303V161.869H31.4068ZM39.1258 166.497H36.7004V162.177H39.1258V166.497ZM42.0637 166.497H39.6382V162.177H42.0637V166.497ZM45.0015 166.497H42.576V162.177H45.0015V166.497ZM47.9363 166.497H45.5109V162.177H47.9363V166.497ZM50.8711 166.497H48.4457V162.177H50.8711V166.497ZM53.809 166.497H51.3835V162.177H53.809V166.497Z" fill="#005BEA"/>
<path opacity="0.1" d="M47.5937 176.194C47.8726 176.351 48.1546 176.496 48.4366 176.651V176.499H50.862V177.864C51.0379 177.939 51.2046 178.021 51.3775 178.1V176.499H53.8029V179.119C53.849 179.14 53.8967 179.157 53.9454 179.17V176.194H47.5937Z" fill="#005BEA"/>
<path opacity="0.1" d="M229.04 190.28H229.343H229.04ZM209.554 144.857C209.612 145.051 209.663 145.244 209.715 145.435C209.67 145.244 209.615 145.051 209.554 144.857ZM64.5932 55.7105V56.9991H78.1364V55.7045L64.5932 55.7105ZM229.043 190.28H229.346H229.043ZM209.554 144.857C209.612 145.051 209.663 145.244 209.715 145.435C209.67 145.244 209.615 145.051 209.554 144.857ZM229.04 190.28H229.343H229.04ZM209.554 144.857C209.612 145.051 209.663 145.244 209.715 145.435C209.67 145.244 209.615 145.051 209.554 144.857Z" fill="#005BEA"/>
<path opacity="0.1" d="M266.629 261C282.944 261 296.171 258.881 296.171 256.266C296.171 253.652 282.944 251.532 266.629 251.532C250.313 251.532 237.086 253.652 237.086 256.266C237.086 258.881 250.313 261 266.629 261Z" fill="#005BEA"/>
<path opacity="0.1" d="M133.392 256.266C149.707 256.266 162.934 254.147 162.934 251.532C162.934 248.918 149.707 246.799 133.392 246.799C117.076 246.799 103.849 248.918 103.849 251.532C103.849 254.147 117.076 256.266 133.392 256.266Z" fill="#005BEA"/>
<path d="M167.403 126.361C167.395 126.331 167.38 126.303 167.357 126.282C166.905 125.837 161.145 117.71 161.145 117.71C161.145 117.71 160.842 116.802 160.351 115.623C160.508 115.419 160.626 115.188 160.699 114.942C160.726 114.838 160.745 114.731 160.757 114.624C160.757 114.591 160.781 114.564 160.79 114.531C160.896 114.12 160.885 113.689 160.76 113.284C160.726 113.388 160.685 113.489 160.636 113.587C160.522 113.235 160.369 112.896 160.181 112.577C159.417 111.264 158.325 110.157 157.522 108.877C156.305 106.889 155.822 104.54 156.155 102.235C156.155 102.353 156.155 102.474 156.155 102.592C156.185 102.135 156.246 101.68 156.337 101.231C156.463 100.719 156.633 100.22 156.843 99.7364C157.564 98.0879 158.732 96.6511 159.441 94.9965C159.679 94.4385 159.86 93.8578 159.981 93.2633C160.231 92.2706 160.322 91.2446 160.251 90.2234C160.251 90.4654 160.211 90.7074 160.175 90.9463C160.098 88.4912 159.104 86.1533 157.389 84.3916C154.912 81.9083 151.355 80.9434 147.954 80.4352C146.524 80.2688 145.159 79.7489 143.982 78.9228C142.675 78.0789 140.986 77.8762 139.458 78.0607C137.702 78.2502 136.07 79.0551 134.853 80.3324C133.237 82.1049 132.537 84.6155 130.651 86.1097C129.508 87.0171 128.059 87.4406 126.728 88.0577C125.397 88.6747 124.138 89.5701 123.711 90.8949C123.711 90.8949 123.711 90.8768 123.711 90.8677V90.9433L123.693 90.9917C123.25 92.5586 124.105 94.1526 124.551 95.7164C125.015 97.3347 125.045 99.0437 125.069 100.716C125.103 102.761 125.133 104.809 125.1 106.857C125.084 107.661 125.057 108.475 124.996 109.277C124.279 109.493 123.582 109.772 122.914 110.111C122.234 110.553 119.694 113.29 119.694 113.29L114.725 132.232L114.791 132.307L114.725 132.564L114.976 132.507C115.68 133.263 117.781 135.417 120.049 136.76L120.261 140.474C120.261 140.474 120.515 144.201 123.95 145.74C124.029 147.032 124.275 152.277 123.138 154.355C122.351 155.873 121.98 157.572 122.065 159.279C122.065 159.279 122.462 162.431 122.01 164.089C121.746 165.197 121.727 166.348 121.952 167.464C121.952 167.464 121.952 167.83 121.952 168.46C121.952 171.814 121.992 182.564 121.952 183.78C121.895 185.217 121.952 206.466 121.952 206.466C121.952 206.466 121.671 217.086 120.767 219.963C119.864 222.839 120.091 232.364 120.091 232.364C120.091 232.364 119.524 243.71 121.528 245.949C121.528 246.048 121.51 246.151 121.507 246.251C121.507 246.297 121.507 246.348 121.507 246.393C121.483 247.255 121.649 248.172 122.392 248.453C123.908 249.034 125.912 250.776 126.291 251.275C126.67 251.774 128.874 253.018 131.748 252.685C133.549 252.483 135.361 252.4 137.172 252.437C137.172 252.437 138.306 252.231 137.939 250.825C137.703 249.947 136.818 248.598 136.187 247.712C136.302 247.742 136.414 247.767 136.52 247.788L136.63 247.809H136.714C136.761 247.812 136.808 247.812 136.854 247.809H136.915C136.971 247.814 137.028 247.814 137.084 247.809C137.845 247.736 140.683 249.055 141.189 249.926C141.696 250.797 143.482 251.46 144.828 251.626C145.628 251.723 147.647 251.56 149.342 251.342C150.196 251.254 151.041 251.1 151.871 250.882C152.271 250.731 152.356 250.247 152.241 249.702C152.104 249.011 151.734 248.387 151.191 247.936C150.7 247.588 150.052 246.672 149.573 245.921L149.445 245.719C150.291 244.914 151.819 242.283 152.283 241.738C152.847 241.076 151.373 216.85 151.373 216.85V204.706L153.632 193.211L155.212 187.129L156.567 177.945C156.567 177.945 158.938 167.219 158.207 166.167C158.207 166.146 157.601 155.102 156.964 152.449C156.688 151.267 156.758 148.605 156.922 146.016C157.093 145.846 157.212 145.632 157.266 145.397C157.319 145.163 157.305 144.918 157.225 144.691C157.18 144.536 157.121 144.385 157.049 144.24C157.049 144.195 157.049 144.146 157.049 144.101C158.359 143.5 159.727 143.035 161.133 142.716C163.392 142.274 162.828 141.112 162.828 141.112C162.828 141.112 163.337 140.117 163.674 139.509C164.01 138.901 163.731 133.535 163.674 133.094C163.652 132.915 163.513 131.929 163.352 130.81C164.077 130.296 165.02 129.658 166.047 129.053C168.003 127.897 167.563 126.678 167.403 126.361ZM137.933 203.048C137.933 203.048 136.238 207.361 136.918 208.465C137.597 209.57 136.805 213.668 136.805 213.668L136.238 219.751C136.238 219.751 134.659 231.033 135.223 233.686C135.665 235.767 135.829 241.983 135.881 244.575C135.842 244.591 135.804 244.609 135.769 244.63L135.693 244.669C135.954 243.65 135.844 241.587 134.55 237.437L134.441 220.295C134.441 220.295 134.241 200.495 135.808 198.281C137.375 196.067 137.93 192.307 137.93 192.307C137.93 192.307 137.591 197.731 137.369 199.167C137.148 200.604 137.933 203.048 137.933 203.048ZM134.777 245.655C134.762 245.692 134.744 245.728 134.732 245.761L134.647 245.652C134.69 245.656 134.734 245.657 134.777 245.655Z" fill="url(#paint0_linear)"/>
<path d="M152.062 252.449C151.185 252.785 146.435 253.356 145.107 253.196C143.779 253.036 142.02 252.364 141.52 251.487C141.02 250.61 138.215 249.285 137.463 249.37C137.155 249.379 136.848 249.336 136.554 249.243C136.035 249.086 135.528 248.892 135.038 248.662C134.969 248.281 134.981 247.889 135.071 247.512C135.089 247.437 135.111 247.362 135.138 247.289C135.315 246.792 135.681 246.386 136.157 246.157L136.266 246.106C136.476 246.015 136.696 245.948 136.921 245.906C139.304 245.45 149.136 246.366 149.136 246.366C149.136 246.366 149.412 246.859 149.791 247.47C150.264 248.226 150.907 249.149 151.392 249.497C151.929 249.955 152.294 250.582 152.425 251.275C152.541 251.811 152.456 252.301 152.062 252.449Z" fill="white"/>
<path opacity="0.1" d="M152.062 252.449C151.185 252.785 146.438 253.356 145.11 253.196C143.782 253.036 142.023 252.361 141.52 251.487C141.017 250.613 138.218 249.285 137.466 249.37C136.715 249.454 135.041 248.662 135.041 248.662C135.041 248.662 134.78 247.452 135.538 246.626L137.054 247.7C137.054 247.7 141.111 248.955 141.863 250.12C142.614 251.284 143.985 251.935 145.965 252.053C147.444 252.149 150.843 251.575 152.435 251.287C152.541 251.811 152.459 252.301 152.062 252.449Z" fill="black"/>
<path d="M137.548 253.992C135.76 253.957 133.971 254.041 132.194 254.243C129.347 254.575 127.173 253.335 126.794 252.824C126.415 252.313 124.454 250.586 122.947 249.981C122.21 249.696 122.037 248.771 122.071 247.906C122.071 247.86 122.071 247.809 122.071 247.763C122.099 247.215 122.18 246.672 122.313 246.139L134.11 245.888L135.132 247.27L135.29 247.482L135.911 248.326C135.911 248.326 136.193 248.695 136.563 249.234C137.187 250.141 138.061 251.481 138.294 252.367C138.667 253.786 137.548 253.992 137.548 253.992Z" fill="white"/>
<path opacity="0.1" d="M137.548 253.992C135.76 253.957 133.971 254.041 132.194 254.243C129.35 254.575 127.173 253.335 126.797 252.824C126.421 252.313 124.454 250.571 122.947 249.987C122.21 249.702 122.037 248.777 122.071 247.912C122.914 248.108 124.684 248.61 125.378 249.485C126.288 250.652 127.916 252.615 130.229 252.739C132.097 252.839 136.645 252.506 138.312 252.373C138.67 253.786 137.548 253.992 137.548 253.992Z" fill="black"/>
<path opacity="0.1" d="M136.145 246.145C136.008 247.156 135.587 247.428 135.283 247.488C135.209 247.503 135.133 247.503 135.059 247.488C135.019 247.485 134.98 247.479 134.941 247.47C134.941 247.47 124.348 249.805 122.207 247.915C122.153 247.866 122.102 247.814 122.056 247.757C122.083 247.21 122.165 246.666 122.298 246.133L134.095 245.882L135.117 247.264C135.294 246.768 135.66 246.362 136.135 246.133L136.145 246.145Z" fill="black"/>
<path opacity="0.1" d="M149.788 247.458C149.551 247.718 149.354 247.866 149.23 247.815C148.672 247.591 144.1 246.814 142.648 247.482C141.196 248.151 136.281 247.591 136.281 247.591C136.281 247.591 136.281 247.01 136.254 246.079C136.464 245.988 136.683 245.921 136.909 245.879C139.292 245.422 149.124 246.339 149.124 246.339C149.124 246.339 149.412 246.847 149.788 247.458Z" fill="black"/>
<path d="M156.706 179.037L155.366 188.275L153.808 194.397L151.577 205.97V218.22C151.577 218.22 153.026 242.594 152.468 243.26C151.91 243.925 149.791 247.715 149.233 247.494C148.675 247.274 144.103 246.493 142.651 247.159C141.199 247.824 136.284 247.27 136.284 247.27C136.284 247.27 136.172 237.812 135.614 235.141C135.056 232.47 136.618 221.118 136.618 221.118L137.175 214.999C137.175 214.999 137.958 210.879 137.288 209.766C136.617 208.653 138.291 204.321 138.291 204.321C138.291 204.321 137.512 201.868 137.736 200.423C137.961 198.977 138.291 193.523 138.291 193.523C138.291 193.523 137.736 197.31 136.187 199.533C134.638 201.756 134.835 221.681 134.835 221.681L134.944 238.922C137.736 248.051 134.944 247.159 134.944 247.159C134.944 247.159 124.351 249.497 122.21 247.603C120.07 245.71 120.682 233.792 120.682 233.792C120.682 233.792 120.461 224.222 121.352 221.33C122.244 218.438 122.526 207.752 122.526 207.752C122.526 207.752 122.468 186.381 122.526 184.939C122.568 183.729 122.526 172.897 122.526 169.512C122.526 168.883 122.526 168.511 122.526 168.511L123.805 165.341L138.964 163.448H146.216C146.216 163.448 157.131 166.006 158.259 167.111C158.283 167.129 158.303 167.151 158.319 167.177C159.05 168.245 156.706 179.037 156.706 179.037Z" fill="#005BEA"/>
<path opacity="0.1" d="M138.3 227.561C138.3 227.561 141.635 235.574 143.209 236.13C144.782 236.687 138.3 227.561 138.3 227.561Z" fill="black"/>
<path opacity="0.1" d="M139.534 239.358C139.534 239.358 150.794 239.914 150.682 241.139C150.57 242.364 139.534 239.358 139.534 239.358Z" fill="black"/>
<path opacity="0.1" d="M124.469 236.154C124.915 236.575 133.058 237.364 132.388 238.133C131.718 238.901 125.139 240.395 125.139 240.395L124.469 236.154Z" fill="black"/>
<path opacity="0.1" d="M123.132 222.331C123.132 222.664 124.805 233.015 125.254 233.459C125.703 233.904 129.381 234.349 129.381 234.349L123.132 222.331Z" fill="black"/>
<path d="M135.274 80.8496C133.677 82.6312 132.985 85.1569 131.124 86.6632C129.993 87.5707 128.562 88.0032 127.246 88.6203C125.93 89.2373 124.627 90.178 124.235 91.5755C123.799 93.1484 124.642 94.7545 125.084 96.3274C125.542 97.9548 125.569 99.6547 125.597 101.358C125.627 103.418 125.66 105.477 125.624 107.537C125.569 110.747 125.303 114.104 123.596 116.823C129.759 118.78 136.314 119.047 142.778 119.298C144.02 119.386 145.268 119.355 146.504 119.204C147.575 118.991 148.635 118.723 149.679 118.402C151.742 117.858 153.869 117.586 156.003 117.595C156.934 117.595 157.883 117.652 158.78 117.41C159.678 117.168 160.542 116.548 160.784 115.653C161 114.848 160.684 113.992 160.272 113.269C159.52 111.95 158.453 110.849 157.646 109.549C156.823 108.175 156.335 106.627 156.22 105.031C156.106 103.434 156.369 101.833 156.988 100.356C157.704 98.6958 158.856 97.25 159.559 95.5864C160.28 93.8001 160.471 91.8452 160.111 89.9536C159.751 88.062 158.855 86.3132 157.528 84.9149C155.081 82.4164 151.571 81.4485 148.211 80.9343C146.797 80.7676 145.447 80.2474 144.288 79.4219C143 78.5749 141.329 78.3692 139.819 78.5568C138.077 78.7515 136.464 79.5654 135.274 80.8496Z" fill="#3F3D56"/>
<g opacity="0.1">
<path opacity="0.1" d="M157.082 98.6112C156.464 100.069 156.199 101.651 156.309 103.23C156.377 102.101 156.639 100.992 157.082 99.9511C157.795 98.2905 158.947 96.8447 159.65 95.181C160.225 93.7919 160.467 92.2879 160.357 90.789C160.294 91.8396 160.055 92.8723 159.65 93.8441C158.947 95.5077 157.795 96.9505 157.082 98.6112Z" fill="black"/>
<path opacity="0.1" d="M125.688 100.946C125.706 102.132 125.724 103.321 125.727 104.506C125.727 102.873 125.712 101.243 125.688 99.6124C125.663 97.9215 125.633 96.2095 125.175 94.5791C124.872 93.5446 124.423 92.495 124.266 91.4515C123.996 92.9336 124.763 94.4369 125.175 95.9161C125.633 97.5313 125.663 99.2554 125.688 100.946Z" fill="black"/>
<path opacity="0.1" d="M158.883 115.68C157.974 115.925 157.04 115.871 156.109 115.865C153.976 115.851 151.851 116.117 149.788 116.657C148.744 116.977 147.684 117.243 146.613 117.456C145.377 117.609 144.128 117.641 142.884 117.552C136.639 117.307 130.305 117.044 124.323 115.263C124.146 115.658 123.943 116.042 123.717 116.412C129.881 118.366 136.436 118.635 142.896 118.886C144.14 118.975 145.389 118.943 146.626 118.79C147.693 118.579 148.748 118.314 149.788 117.994C151.847 117.452 153.968 117.183 156.097 117.192C157.028 117.192 157.974 117.25 158.871 117.005C159.769 116.76 160.633 116.146 160.875 115.251C160.977 114.836 160.967 114.402 160.845 113.992C160.575 114.839 159.741 115.429 158.883 115.68Z" fill="black"/>
</g>
<path d="M149.903 112.096C149.679 112.598 148.733 116.935 148.508 117.38C148.284 117.825 147.059 124.942 146.947 125.341C146.835 125.741 138.873 123.672 138.873 123.672L134.08 119.664L129.153 114.773C129.153 114.773 129.008 110.359 132.637 108.944C132.883 108.847 133.137 108.768 133.395 108.708C137.797 107.652 137.354 94.2978 137.354 94.2978L146.389 98.1907C146.389 98.1907 144.715 105.983 144.773 107.486C144.788 107.991 145.185 108.306 145.704 108.496C146.505 108.724 147.34 108.814 148.172 108.762C148.172 108.762 150.127 111.597 149.903 112.096Z" fill="#FBBEBE"/>
<path d="M166.078 126.73L167.36 127.065C167.36 127.065 168.309 128.505 166.078 129.845C164.661 130.704 163.301 131.653 162.006 132.685L155.412 134.688L154.141 130.71L160.278 126.064L166.078 126.73Z" fill="#005BEA"/>
<path opacity="0.1" d="M166.078 126.73L167.36 127.065C167.36 127.065 168.309 128.505 166.078 129.845C164.661 130.704 163.301 131.653 162.006 132.685L155.412 134.688L154.141 130.71L160.278 126.064L166.078 126.73Z" fill="black"/>
<path d="M117.954 130.571L115.389 133.076C115.389 133.076 120.015 138.417 123.575 138.75C127.134 139.083 129.429 134.688 129.429 134.688L126.349 129.848L117.954 130.571Z" fill="#005BEA"/>
<path opacity="0.1" d="M117.954 130.571L115.389 133.076C115.389 133.076 120.015 138.417 123.575 138.75C127.134 139.083 129.429 134.688 129.429 134.688L126.349 129.848L117.954 130.571Z" fill="black"/>
<path opacity="0.1" d="M142.317 103.024C147.245 103.024 151.24 99.0388 151.24 94.1224C151.24 89.206 147.245 85.2204 142.317 85.2204C137.389 85.2204 133.395 89.206 133.395 94.1224C133.395 99.0388 137.389 103.024 142.317 103.024Z" fill="black"/>
<path d="M142.317 102.356C147.245 102.356 151.24 98.3703 151.24 93.4539C151.24 88.5374 147.245 84.5519 142.317 84.5519C137.389 84.5519 133.395 88.5374 133.395 93.4539C133.395 98.3703 137.389 102.356 142.317 102.356Z" fill="#FBBEBE"/>
<path opacity="0.1" d="M158.325 168.187C156.294 168.419 154.293 168.866 152.356 169.521C149.021 170.628 122.886 169.539 122.523 169.521C122.523 168.892 122.523 168.52 122.523 168.52L123.802 165.35L138.961 163.457H146.213C146.213 163.457 157.128 166.016 158.256 167.12C158.301 167.785 158.325 168.187 158.325 168.187Z" fill="black"/>
<path opacity="0.1" d="M149.903 112.096C149.679 112.598 148.733 116.935 148.508 117.38C148.284 117.825 147.059 124.942 146.947 125.341C146.835 125.741 138.873 123.672 138.873 123.672L134.08 119.664L129.153 114.773C129.153 114.773 129.008 110.359 132.637 108.944L141.647 119.28L145.704 108.496C146.505 108.724 147.34 108.814 148.172 108.762C148.172 108.762 150.127 111.597 149.903 112.096Z" fill="black"/>
<path d="M141.647 119.612L132.424 109.026C131.885 108.682 131.268 108.477 130.629 108.43C129.99 108.383 129.35 108.495 128.765 108.756C126.7 109.649 124.135 110.372 123.465 110.816C122.795 111.261 120.285 114.013 120.285 114.013L127.761 133.526L124.469 146.379C124.469 146.379 124.972 152.945 123.69 155.338C122.909 156.868 122.543 158.575 122.629 160.29C122.629 160.29 123.02 163.463 122.574 165.129C122.314 166.244 122.294 167.401 122.516 168.523C122.516 168.523 149.012 169.636 152.356 168.523C154.292 167.866 156.293 167.419 158.325 167.189C158.325 167.189 157.719 156.058 157.113 153.387C156.506 150.716 157.616 140.535 157.616 140.535L156.891 129.627L161.239 118.436C161.239 118.436 158.883 111.261 156.427 110.538C156.427 110.538 151.968 109.479 151.019 108.98C150.07 108.481 147.28 108.033 147.28 108.033L145.816 108.523L141.647 119.612Z" fill="#005BEA"/>
<path opacity="0.1" d="M154.515 129.259L135.108 127.942C134.617 127.909 134.191 128.279 134.158 128.769L132.074 159.34C132.041 159.83 132.412 160.254 132.903 160.287L152.311 161.604C152.802 161.637 153.227 161.267 153.26 160.777L155.344 130.207C155.377 129.717 155.006 129.292 154.515 129.259Z" fill="black"/>
<path d="M155.183 128.595L135.776 127.279C135.285 127.245 134.86 127.615 134.826 128.105L132.743 158.676C132.709 159.166 133.08 159.59 133.571 159.624L152.979 160.94C153.47 160.973 153.895 160.603 153.929 160.113L156.012 129.543C156.046 129.053 155.675 128.628 155.183 128.595Z" fill="#3F3D56"/>
<path d="M154.543 130.991L136.085 129.739L134.188 157.57L152.646 158.822L154.543 130.991Z" fill="white"/>
<path opacity="0.1" d="M152.888 138.095L137.811 137.042L137.516 141.234L152.594 142.287L152.888 138.095Z" fill="black"/>
<path opacity="0.1" d="M152.342 154.755L149.95 154.593L149.801 156.778L152.193 156.94L152.342 154.755Z" fill="black"/>
<path opacity="0.1" d="M149.982 149.482L137.735 148.651L137.586 150.836L149.833 151.667L149.982 149.482Z" fill="black"/>
<path d="M152.258 129.951L139.506 129.086L139.277 132.445L152.029 133.31L152.258 129.951Z" fill="#3F3D56"/>
<path opacity="0.1" d="M152.258 129.951L139.506 129.086L139.277 132.445L152.029 133.31L152.258 129.951Z" fill="black"/>
<path opacity="0.1" d="M142.763 167.573C142.763 167.573 142.651 184.046 138.3 193.505C138.3 193.505 143.545 181.04 143.545 180.541C143.545 180.042 146.444 174.809 145.667 173.251C144.891 171.693 142.763 167.573 142.763 167.573Z" fill="black"/>
<path opacity="0.1" d="M142.999 91.2276C142.833 89.7696 143.191 88.2999 144.009 87.0806C143.912 88.3028 144.258 89.519 144.985 90.5075C145.712 91.4959 146.771 92.1906 147.969 92.4648C147.866 92.3763 147.794 92.259 147.759 92.1283C147.725 91.9976 147.732 91.8597 147.778 91.7328C148.399 92.4345 148.875 93.2663 149.579 93.8834C150.282 94.5005 151.337 94.8695 152.165 94.4309C153.29 93.8259 153.302 92.2319 153.011 90.9917C152.386 88.3506 151.105 85.9091 149.284 83.8925C148.83 83.283 148.241 82.7866 147.562 82.4423C146.884 82.0981 146.135 81.9153 145.373 81.9083C143.651 81.7752 141.863 81.9264 140.319 82.6977C139.451 83.1705 138.637 83.7376 137.894 84.3886L133.649 87.8429C133.241 88.1364 132.891 88.5037 132.618 88.9258C132.436 89.2786 132.327 89.6643 132.297 90.0601C132.189 91.1914 132.398 92.3304 132.903 93.3494C133.407 94.3683 134.187 95.2267 135.153 95.8283C135.133 94.9342 135.379 94.0542 135.861 93.3001C136.343 92.5461 137.039 91.9521 137.861 91.5936C137.989 91.7009 138.093 91.8345 138.166 91.9852C138.239 92.136 138.278 92.3005 138.282 92.4678L139.176 90.8768C139.309 90.5872 139.519 90.3394 139.783 90.1599C140.335 89.8574 141.023 90.2143 141.493 90.6408C141.963 91.0673 142.42 91.5997 143.051 91.6662L143.075 89.2978" fill="black"/>
<path d="M142.999 90.8949C142.832 89.4359 143.19 87.9652 144.009 86.7449C143.736 89.1648 145.564 91.6632 147.972 92.1291C147.869 92.0413 147.796 91.9245 147.762 91.7943C147.728 91.6641 147.735 91.5266 147.781 91.4001C148.402 92.1018 148.878 92.9306 149.582 93.5507C150.285 94.1708 151.34 94.5368 152.168 94.0952C153.293 93.4902 153.305 91.8961 153.014 90.659C152.389 88.0179 151.108 85.5764 149.288 83.5598C148.723 82.873 148.011 82.3211 147.205 81.9446C146.621 81.7292 146.007 81.6047 145.386 81.5756C143.663 81.4425 141.875 81.5907 140.331 82.362C139.464 82.8369 138.65 83.4049 137.906 84.0559L133.661 87.5102C133.252 87.803 132.903 88.1704 132.631 88.5931C132.448 88.9457 132.339 89.3316 132.309 89.7274C132.201 90.8582 132.411 91.9968 132.915 93.0152C133.42 94.0336 134.199 94.8915 135.165 95.4926C135.146 94.5986 135.392 93.719 135.874 92.9651C136.356 92.2112 137.052 91.6171 137.873 91.2579C138.001 91.3656 138.105 91.4992 138.177 91.6499C138.25 91.8006 138.29 91.9649 138.294 92.1321L139.185 90.5471C139.318 90.2571 139.527 90.009 139.792 89.8302C140.344 89.5277 141.032 89.8847 141.502 90.3112C141.972 90.7376 142.43 91.267 143.06 91.3366L143.084 88.9651" fill="#3F3D56"/>
<path d="M147.226 147.044C146.447 146.651 133.561 148.656 133.561 148.656C133.561 148.656 131.439 148.051 126.309 147.21C121.179 146.37 120.852 141.367 120.852 141.367L120.291 131.351L122.022 129.839L129.438 134.679C129.438 134.679 129.553 137.126 129.438 137.567C129.365 137.87 129.171 138.23 129.19 138.475C129.195 138.541 129.223 138.604 129.267 138.653C129.312 138.702 129.372 138.735 129.438 138.747C129.941 138.874 136.799 139.981 136.799 139.981C136.799 139.981 152.695 138.895 156.658 144.237C156.972 144.629 157.209 145.076 157.358 145.556C158.341 149.207 147.932 147.392 147.226 147.044Z" fill="#FBBEBE"/>
<path opacity="0.1" d="M157.367 145.577C156.761 145.846 156.385 146.04 156.385 146.04C156.385 146.04 150.697 145.873 147.502 144.718C144.306 143.563 140.422 143.768 140.422 143.768C140.422 143.768 127.107 141.481 129.171 138.496C129.177 138.562 129.204 138.625 129.249 138.674C129.294 138.723 129.354 138.757 129.42 138.768C129.923 138.895 136.781 140.002 136.781 140.002C136.781 140.002 152.677 138.916 156.64 144.258C156.963 144.648 157.21 145.096 157.367 145.577Z" fill="black"/>
<path d="M162.897 127.955C162.897 127.955 163.68 133.463 163.734 133.91C163.789 134.358 164.071 139.751 163.734 140.365C163.398 140.979 162.897 141.978 162.897 141.978C162.897 141.978 163.455 143.145 161.224 143.593C158.992 144.04 156.373 145.371 156.373 145.371C156.373 145.371 150.682 145.205 147.505 144.037C144.327 142.87 140.422 143.091 140.422 143.091C140.422 143.091 123.52 140.196 130.772 136.663C138.024 133.13 143.154 137.915 143.154 137.915L151.24 137.416C151.24 137.416 154.254 135.577 155.09 135.746C155.681 135.822 156.281 135.725 156.819 135.468L156.876 129.624L162.897 127.955Z" fill="#FBBEBE"/>
<path opacity="0.1" d="M121.895 114.434L120.276 114.349L115.37 133.405C115.37 133.405 120.667 132.068 122.95 133.405C125.233 134.742 129.42 135.018 129.42 135.018L127.859 119.827L121.895 114.434Z" fill="black"/>
<path d="M121.895 114.098L120.276 114.013L115.37 133.07C115.37 133.07 120.667 131.733 122.95 133.07C125.233 134.407 129.42 134.682 129.42 134.682L127.859 119.491L121.895 114.098Z" fill="#005BEA"/>
<path opacity="0.1" d="M158.995 118.272L161.224 118.774C161.224 118.774 166.915 126.941 167.36 127.398C167.806 127.855 165.238 129.515 164.18 129.515C163.122 129.515 157.934 130.12 156.427 131.518C154.921 132.915 155.548 125.883 155.548 125.722C155.548 125.562 157.419 121.125 157.419 121.125L158.995 118.272Z" fill="black"/>
<path d="M158.995 117.94L161.224 118.439C161.224 118.439 166.915 126.621 167.36 127.065C167.806 127.51 165.238 129.183 164.18 129.183C163.122 129.183 157.934 129.788 156.427 131.185C154.921 132.583 155.548 125.55 155.548 125.39C155.548 125.229 157.431 120.777 157.431 120.777L158.995 117.94Z" fill="#005BEA"/>
<g opacity="0.1">
<path opacity="0.1" d="M143.994 86.7721C143.981 86.5402 143.986 86.3076 144.009 86.0764C143.547 86.7675 143.23 87.5441 143.075 88.3601V89.0619C143.075 89.0619 143.075 89.0468 143.075 89.0377V89.2041C143.075 89.6941 143.075 90.1871 143.06 90.6771H143.018V90.904C143.018 90.8253 143.018 90.7497 143.003 90.6711C142.396 90.5743 141.963 90.0661 141.511 89.6608C141.059 89.2555 140.353 88.8683 139.801 89.1799C139.537 89.3587 139.327 89.6067 139.195 89.8967L138.294 91.4817C138.29 91.3149 138.25 91.1509 138.178 91.0007C138.105 90.8505 138.001 90.7174 137.873 90.6106C137.051 90.9691 136.355 91.5631 135.873 92.3171C135.391 93.0711 135.145 93.9512 135.165 94.8453C134.337 94.3275 133.644 93.6204 133.144 92.7826C132.643 91.9447 132.35 91.0001 132.288 90.0268C132.235 91.1136 132.474 92.1947 132.98 93.1587C133.486 94.1227 134.24 94.9346 135.165 95.5107C135.146 94.6168 135.392 93.7371 135.874 92.9832C136.356 92.2293 137.052 91.6352 137.873 91.276C138.001 91.3838 138.105 91.5174 138.177 91.668C138.25 91.8187 138.29 91.9831 138.294 92.1502L139.185 90.5652C139.318 90.2752 139.527 90.0272 139.792 89.8483C140.344 89.5459 141.032 89.9028 141.502 90.3293C141.972 90.7558 142.43 91.2851 143.06 91.3547C143.06 90.5803 143.068 89.808 143.084 89.0377C143.233 88.2296 143.542 87.4593 143.994 86.7721Z" fill="black"/>
<path opacity="0.1" d="M142.969 89.8181C142.984 89.6124 143.009 89.4067 143.039 89.2131L143.072 88.3783C142.981 88.8525 142.947 89.3358 142.969 89.8181Z" fill="black"/>
<path opacity="0.1" d="M152.168 93.4267C151.34 93.8683 150.285 93.4993 149.582 92.8822C148.878 92.2651 148.402 91.4333 147.781 90.7316C147.735 90.8586 147.728 90.9965 147.762 91.1271C147.797 91.2578 147.87 91.3751 147.972 91.4636C147.911 91.4636 147.853 91.4333 147.796 91.4182C148.402 92.1139 148.884 92.9306 149.582 93.5356C150.279 94.1405 151.34 94.5217 152.168 94.08C152.995 93.6384 153.232 92.6039 153.159 91.5967C153.105 92.3892 152.82 93.0758 152.168 93.4267Z" fill="black"/>
<path opacity="0.1" d="M147.778 91.4122C146.764 91.1365 145.859 90.5582 145.183 89.7549C144.508 88.9515 144.095 87.9614 144 86.9173C143.827 89.2918 145.622 91.6723 147.972 92.129C147.872 92.0423 147.8 91.9278 147.765 91.8001C147.731 91.6724 147.735 91.5374 147.778 91.4122Z" fill="black"/>
</g>
<path d="M293.378 140.849C293.378 140.849 292.184 140.683 292.184 138.95C292.184 137.217 291.329 133.971 291.329 133.971C291.329 133.971 290.589 128.324 289.567 127.428C288.546 126.533 287.233 121.276 287.233 121.276C287.233 121.276 287.009 118.424 286.551 117.809C286.093 117.195 285.474 115.692 284.562 113.548C283.649 111.403 279.853 109.933 279.853 109.933C279.853 109.933 272.974 105.952 271.025 104.655C270.846 104.547 270.68 104.421 270.528 104.28C270.188 103.838 268.708 103.829 268.708 103.829C268.554 102.852 268.405 101.733 268.357 100.719C268.357 100.611 268.357 100.502 268.357 100.393C270.531 99.1108 272.168 97.0895 272.968 94.7001C273.005 94.5852 273.035 94.4672 273.068 94.3492C273.201 94.3083 273.324 94.2396 273.429 94.1479C273.533 94.0561 273.617 93.9433 273.675 93.8169C273.847 93.4267 273.853 92.9729 274.072 92.607C274.326 92.1774 274.811 91.9475 275.194 91.6269C276.158 90.8072 276.406 89.4309 276.361 88.1817C276.33 87.1654 276.167 86.143 276.23 85.1357C276.23 85.051 276.23 84.9663 276.249 84.8816C276.267 84.7334 276.288 84.5792 276.315 84.434C276.464 83.6838 276.788 82.976 276.97 82.2319C277.152 81.4878 277.17 80.65 276.746 80.0087C276.124 79.068 274.83 78.8805 273.693 78.7988C272.404 78.6899 271.267 78.829 270.427 77.7613C270.042 77.2036 269.608 76.6813 269.13 76.2005C268.96 76.0432 267.311 75.036 267.311 74.9724C265.697 74.2239 263.866 74.0831 262.157 74.5762C261.299 74.8242 260.495 75.2295 259.625 75.4322C257.757 75.8738 255.605 75.3959 254.016 76.4637C253.131 77.0686 252.6 78.0335 252.103 78.9682C251.699 79.7385 251.289 80.5098 250.872 81.2821C250.199 82.5495 249.52 83.8381 249.238 85.2416C249.179 85.5481 249.142 85.8584 249.126 86.1702C249.126 86.2821 249.126 86.394 249.126 86.5059C249.126 86.5543 249.126 86.6027 249.126 86.6511C249.126 86.754 249.126 86.8568 249.144 86.9536C249.162 87.0504 249.144 87.0776 249.165 87.1412C249.186 87.2047 249.193 87.3468 249.211 87.4436C249.229 87.5404 249.265 87.7128 249.302 87.8429C249.302 87.9004 249.338 87.9548 249.356 88.0123C249.374 88.0698 249.423 88.215 249.462 88.3148C249.502 88.4146 249.505 88.4206 249.529 88.4721C249.575 88.5779 249.629 88.6808 249.684 88.7745C249.708 88.8139 249.726 88.8532 249.75 88.8925C249.834 89.0341 249.927 89.1696 250.029 89.2978C250.675 90.1054 251.633 90.6197 252.34 91.3759C252.34 91.4061 252.34 91.4364 252.34 91.4666C252.34 91.5483 252.34 91.6299 252.34 91.7146C252.383 93.4013 252.838 95.0518 253.667 96.5227C254.496 97.9935 255.672 99.24 257.093 100.154C257.093 100.269 257.109 100.387 257.115 100.505C257.174 101.402 257.163 102.302 257.081 103.197C256.958 103.052 256.803 102.937 256.629 102.859C256.455 102.782 256.265 102.744 256.075 102.749C255.945 102.743 255.814 102.754 255.687 102.782L255.659 102.761V102.788C254.992 102.952 254.171 103.644 253.386 105.614C253.386 105.614 250.996 108.3 249.177 108.188C247.358 108.076 242.753 110.986 242.753 110.986C242.753 110.986 238.26 113.892 237.296 116.857C236.757 118.538 236.11 120.183 235.358 121.781L229.789 133.191L228.767 142.265C228.767 142.265 229.334 146.291 229.222 146.908C229.11 147.525 231.553 153.06 231.553 153.06C231.553 153.06 239.627 167.21 242.926 167.936L243.162 167.773C243.304 167.844 243.454 167.899 243.608 167.936L244.287 167.461C244.329 167.993 244.311 168.528 244.232 169.055C243.781 170.456 244.405 179.573 245.2 181.36C245.994 183.148 245.712 206.59 245.712 206.59L245.6 208.656C245.6 208.656 245.6 208.723 245.627 208.838L245.6 209.328L245.682 209.37C245.767 210.027 245.739 210.694 245.6 211.342C245.315 212.249 245.2 214.811 245.2 214.811C245.2 214.811 242.926 229.294 244.005 232.204C245.084 235.114 245.997 238.302 245.997 238.302C245.997 238.302 247.134 241.932 246.052 242.537C244.969 243.142 241.904 244.215 242.529 245.725C243.105 247.122 245.291 250.867 245.615 251.414L245.588 251.717L245.142 256.535C245.214 257.172 245.387 257.792 245.654 258.374C246.142 259.427 247.088 260.513 248.895 260.395C249.199 260.374 249.547 260.341 249.89 260.295C253.191 259.851 257.254 258.381 257.254 258.381C257.044 258.247 256.851 258.088 256.681 257.906C256.519 257.749 256.39 257.561 256.303 257.353C256.216 257.145 256.172 256.921 256.175 256.696C256.223 255.816 254.577 251.638 254.165 250.607L254.071 250.377C254.071 250.377 257.824 246.46 257.2 242.993C257.2 242.993 253.046 240.574 254.413 239.243C255.781 237.912 258.224 234.101 258.224 234.101C258.224 234.101 258.337 219.839 258.224 217.712C258.107 216.233 258.178 214.745 258.434 213.284C258.479 213.066 258.534 212.851 258.591 212.637C260.484 212.922 262.395 213.066 264.309 213.069C265.009 213.069 265.716 213.055 266.432 213.027C266.432 213.229 266.441 213.446 266.459 213.68C266.616 217.213 266.911 223.411 267.15 225.713C267.49 229.01 269.366 237.906 269.366 237.906C269.366 237.906 265.786 240.196 269.991 245.849C269.991 245.849 269.991 247.894 269.712 248.193C269.414 249.163 269.174 250.15 268.993 251.148C268.818 252.21 268.745 253.29 269.03 253.846C269.712 255.183 273.805 255.074 273.805 255.074C273.838 255.067 273.871 255.062 273.905 255.059C274.678 254.978 275.459 255.051 276.203 255.274C276.946 255.498 277.638 255.867 278.237 256.36C279.793 257.606 285.693 257.062 288.891 256.662C290.143 256.502 290.98 256.36 290.98 256.36C291.02 256.219 291.035 256.071 291.023 255.924C290.989 255.141 290.374 253.423 286.202 251.889C286.202 251.889 282.279 249.258 282.333 246.965H282.246H281.794C282.079 246.956 282.279 246.956 282.279 246.956C282.279 246.956 280.742 241.363 281.369 240.906C281.997 240.45 280.117 234.252 280.117 234.252C280.117 234.252 279.041 223.847 278.98 223.121C278.984 222.495 279.08 221.873 279.265 221.275L278.98 215.568C278.98 215.568 278.926 213.671 278.98 213.054C278.974 212.518 278.932 211.984 278.853 211.454C278.826 211.242 278.798 211.021 278.768 210.804C280.238 210.432 281.193 210.09 281.193 210.09L281.024 190.232C282.273 187.812 282.503 182.501 282.497 178.738C282.497 176.318 282.388 174.527 282.388 174.527L284.095 171.748C284.095 171.748 284.489 168.42 283.865 167.691C283.589 167.362 283.713 167.02 283.94 166.738C284.06 166.641 284.187 166.552 284.319 166.472C284.304 166.451 284.291 166.429 284.28 166.406C284.399 166.306 284.526 166.216 284.659 166.137C284.659 166.137 284.053 165.199 284.595 164.803C285.105 165.147 285.559 165.423 285.905 165.619C285.881 165.84 285.856 165.967 285.856 165.967L286.002 165.665C286.335 165.852 286.539 165.967 286.539 165.967C286.539 165.967 289.213 160.653 289.155 159.872C289.097 159.092 290.974 155.789 290.974 155.789C290.974 155.789 291.202 154.053 292.226 153.327C293.251 152.601 293.021 147.341 293.021 147.341C293.021 147.341 293.306 144.6 293.988 143.484C294.67 142.368 293.378 140.849 293.378 140.849ZM242.213 138.517L242.265 139.785C241.962 139.298 241.743 138.95 241.743 138.95L242.213 138.517Z" fill="url(#paint1_linear)"/>
<path d="M286.696 163.668L286.042 166.451C286.042 166.451 280.796 163.774 279.853 160.386C278.911 156.999 281.433 155.707 281.433 155.707L286.323 157.77L286.696 163.668Z" fill="white"/>
<path opacity="0.1" d="M286.696 163.668L286.042 166.451C286.042 166.451 280.796 163.774 279.853 160.386C278.911 156.999 281.433 155.707 281.433 155.707L286.323 157.77L286.696 163.668Z" fill="black"/>
<path d="M257.26 258.378C257.26 258.378 252.409 260.156 249.074 260.38C247.304 260.498 246.373 259.415 245.894 258.371C245.634 257.796 245.464 257.184 245.391 256.557L245.83 251.762L246.061 249.212L253.146 247.373L254.15 250.437L254.244 250.667C254.644 251.693 256.263 255.849 256.214 256.717C256.21 256.941 256.252 257.164 256.337 257.372C256.422 257.58 256.548 257.769 256.708 257.927C256.872 258.1 257.058 258.251 257.26 258.378Z" fill="white"/>
<path d="M290.38 255.94C290.392 256.086 290.378 256.234 290.338 256.375C290.338 256.375 279.963 258.099 277.84 256.375C277.244 255.871 276.548 255.497 275.799 255.277C275.049 255.057 274.262 254.995 273.487 255.096C273.487 255.096 269.473 255.204 268.802 253.886C268.524 253.332 268.596 252.258 268.769 251.203C268.946 250.21 269.181 249.228 269.473 248.263L269.633 248.136L270.588 247.37L281.77 247.041H281.854C281.8 249.321 285.647 251.938 285.647 251.938C289.743 253.45 290.347 255.159 290.38 255.94Z" fill="white"/>
<path opacity="0.1" d="M290.383 255.94C290.394 256.086 290.378 256.234 290.338 256.375C290.338 256.375 279.963 258.099 277.843 256.375C277.246 255.871 276.551 255.497 275.8 255.277C275.05 255.056 274.262 254.995 273.487 255.096C273.487 255.096 269.469 255.205 268.799 253.886C268.523 253.332 268.593 252.258 268.766 251.2C270.312 251.354 272.753 251.738 273.711 252.658C275.16 254.049 277.616 255.44 279.12 255.552C280.308 255.625 287.375 255.849 290.383 255.94Z" fill="black"/>
<path opacity="0.1" d="M257.26 258.378C257.26 258.378 252.409 260.156 249.074 260.38C247.304 260.498 246.373 259.415 245.894 258.371C247.131 258.786 248.844 259.218 249.744 258.822C250.812 258.347 254.595 258.045 256.718 257.915C256.878 258.092 257.06 258.247 257.26 258.378Z" fill="black"/>
<path d="M264.458 115.036C260.456 113.484 255.308 108.357 256.593 105.961C256.877 105.356 257.047 104.704 257.093 104.038C257.176 103.133 257.188 102.222 257.13 101.315C257.04 99.8289 256.86 98.3491 256.593 96.884C256.593 96.884 269.087 97.1653 268.36 99.0014C268.148 99.5428 268.111 100.477 268.172 101.521C268.232 102.565 268.381 103.753 268.539 104.755C268.754 106.125 268.975 107.174 268.975 107.174C268.975 107.174 268.208 108.242 267.763 108.3C267.317 108.357 270.2 117.259 264.458 115.036Z" fill="#CF6F80"/>
<path opacity="0.1" d="M254.231 250.652L254.137 250.755C250.402 246.248 245.885 251.868 245.885 251.868L245.818 251.747L246.048 249.197L253.134 247.358L254.137 250.422L254.231 250.652Z" fill="black"/>
<path opacity="0.1" d="M281.861 247.358C281.861 247.358 279.132 247.304 277.677 248.586C276.221 249.869 269.187 248.862 269.491 248.586C269.579 248.447 269.633 248.288 269.648 248.123L270.603 247.358L281.785 247.029C281.827 247.24 281.861 247.358 281.861 247.358Z" fill="black"/>
<path d="M258.879 211.965C258.676 212.467 258.522 212.986 258.418 213.517C258.166 214.971 258.095 216.45 258.209 217.921C258.321 220.038 258.209 234.228 258.209 234.228C258.209 234.228 255.811 238.012 254.471 239.346C253.131 240.68 257.2 243.075 257.2 243.075C257.806 246.526 254.131 250.422 254.131 250.422C250.396 245.915 245.879 251.532 245.879 251.532C245.879 251.532 243.423 247.298 242.811 245.785C242.198 244.273 245.209 243.229 246.267 242.612C247.325 241.995 246.212 238.378 246.212 238.378C246.212 238.378 245.321 235.205 244.26 232.31C243.199 229.415 245.43 215.008 245.43 215.008C245.43 215.008 245.545 212.446 245.821 211.554C245.959 210.91 245.986 210.247 245.903 209.594C245.885 209.373 245.864 209.191 245.848 209.064C245.833 208.937 245.821 208.883 245.821 208.883L245.864 208.81L247.379 205.991C247.379 205.991 259.607 210.19 258.879 211.965Z" fill="#005BEA"/>
<path d="M281.861 247.025C281.861 247.025 279.132 246.968 277.677 248.235C276.221 249.503 269.187 248.514 269.491 248.235C269.794 247.957 269.767 245.9 269.767 245.9C265.64 240.277 269.16 237.997 269.16 237.997C269.16 237.997 267.32 229.149 266.986 225.867C266.753 223.577 266.465 217.398 266.31 213.898C266.244 212.386 266.204 211.342 266.204 211.342L269.545 210.68L269.979 210.595L278.11 208.965C278.11 208.965 278.334 210.477 278.486 211.714C278.563 212.242 278.604 212.775 278.61 213.308C278.559 213.913 278.61 215.81 278.61 215.81L278.889 221.484C278.709 222.08 278.615 222.698 278.61 223.32C278.668 224.046 279.726 234.394 279.726 234.394C279.726 234.394 281.566 240.571 280.939 241.015C280.311 241.46 281.861 247.025 281.861 247.025Z" fill="#005BEA"/>
<path opacity="0.1" d="M268.36 99.0104C268.148 99.5519 268.111 100.487 268.172 101.53C266.498 102.536 264.574 103.05 262.621 103.013C260.668 102.977 258.765 102.391 257.13 101.324C257.04 99.8379 256.86 98.3582 256.593 96.8931C256.593 96.8931 269.087 97.1744 268.36 99.0104Z" fill="black"/>
<path d="M273.183 92.3317C273.216 95.0761 272.155 97.7212 270.233 99.685C268.312 101.649 265.687 102.771 262.936 102.803C260.185 102.836 257.534 101.778 255.565 99.8604C253.597 97.9431 252.473 95.3241 252.44 92.5797C252.44 92.495 252.44 92.4164 252.44 92.3317C252.44 89.5865 253.533 86.9537 255.478 85.0125C257.424 83.0714 260.063 81.9809 262.815 81.9809C265.566 81.9809 268.205 83.0714 270.151 85.0125C272.096 86.9537 273.189 89.5865 273.189 92.3317H273.183Z" fill="#CF6F80"/>
<path opacity="0.1" d="M264.458 115.036C260.456 113.484 255.308 108.357 256.593 105.961C256.877 105.356 257.047 104.704 257.093 104.038L262.572 108.532L265.962 111.306L268.539 104.764C268.754 106.134 268.975 107.183 268.975 107.183C268.975 107.183 268.208 108.251 267.763 108.309C267.317 108.366 270.2 117.259 264.458 115.036Z" fill="black"/>
<path d="M278.626 134.9L274.051 211.578L268.084 211.968L252.631 167.507L255.165 114.721L255.702 103.569L262.572 109.198L265.962 111.972L268.614 105.235L273.547 109.525L278.626 134.9Z" fill="#005BEA"/>
<path opacity="0.1" d="M258.879 211.965C258.676 212.467 258.522 212.986 258.418 213.517C254.073 212.849 249.852 211.535 245.897 209.618L245.815 209.576L245.842 209.089V208.834L247.358 206.015C247.358 206.015 259.607 210.19 258.879 211.965Z" fill="black"/>
<path opacity="0.1" d="M269.645 213.529C268.535 213.718 267.416 213.846 266.292 213.913C266.225 212.401 266.186 211.357 266.186 211.357L269.545 210.68L269.645 213.529Z" fill="black"/>
<path opacity="0.1" d="M278.498 211.714C276.343 212.274 273.011 212.903 270.033 212.51L269.991 210.595L278.122 208.965C278.122 208.965 278.338 210.465 278.498 211.714Z" fill="black"/>
<path opacity="0.1" d="M269.979 212.86C257.548 214.978 246.164 208.907 246.164 208.907L246.273 206.85C246.273 206.85 246.555 183.532 245.773 181.744C244.99 179.957 244.381 170.904 244.824 169.521C245.266 168.139 243.208 147.268 243.208 147.268L242.874 138.799L230.659 133.847L236.116 122.495C236.853 120.904 237.487 119.267 238.014 117.595C238.963 114.646 243.368 111.751 243.368 111.751C243.368 111.751 247.886 108.859 249.672 108.968C251.457 109.077 253.798 106.409 253.798 106.409C255.526 102.014 257.09 103.989 257.09 103.989C257.09 104.201 257.09 103.989 257.006 104.64C256.399 109.464 266.811 124.709 266.959 124.981L267.963 149.077L268.966 179.57L269.979 212.86Z" fill="black"/>
<path d="M269.645 212.86C257.215 214.978 245.827 208.907 245.827 208.907L245.939 206.85C245.939 206.85 246.218 183.532 245.436 181.744C244.654 179.957 244.044 170.895 244.49 169.5C244.936 168.106 242.865 147.256 242.865 147.256L242.529 138.786L230.316 133.835L235.774 122.483C236.509 120.892 237.143 119.256 237.672 117.586C238.621 114.646 243.041 111.748 243.041 111.748C243.041 111.748 247.558 108.856 249.341 108.965C251.124 109.074 253.476 106.409 253.476 106.409C255.208 102.014 257.115 103.989 257.115 103.989C257.115 104.201 256.933 104.292 257.03 104.64C258.364 109.319 266.501 124.709 266.65 124.981L267.653 149.077L268.636 179.585L269.645 212.86Z" fill="white"/>
<path opacity="0.1" d="M266.295 125.662C264.958 125.105 257.876 117.038 257.876 117.038V115.202C257.618 114.597 256.084 114.966 254.844 115.39L255.377 104.237L255.984 104.739C257.309 109.416 266.15 125.393 266.295 125.662Z" fill="black"/>
<path d="M266.632 124.996C265.292 124.437 258.209 116.373 258.209 116.373V114.534C257.951 113.929 256.42 114.298 255.177 114.721L255.702 103.581L256.308 104.08C257.645 108.75 266.483 124.724 266.632 124.996Z" fill="white"/>
<path opacity="0.1" d="M246.164 165.226C246.33 165.226 254.807 164.337 254.807 164.337C254.807 164.337 259.94 174.409 259.604 176.856C259.267 179.303 258.658 181.475 256.593 181.091C254.529 180.707 245.482 181.394 245.482 181.394L246.164 165.226Z" fill="black"/>
<path d="M245.827 164.558C245.997 164.558 254.474 163.668 254.474 163.668C254.474 163.668 259.604 173.756 259.27 176.176C258.937 178.596 258.321 180.795 256.26 180.411C254.198 180.026 245.145 180.713 245.145 180.713L245.827 164.558Z" fill="white"/>
<path d="M252.215 159.842C252.215 159.842 259.995 164.016 260.162 165.287C260.328 166.557 256.202 164.73 255.311 164.506C254.724 164.367 254.127 164.274 253.525 164.228L247.58 164.388L252.215 159.842Z" fill="#CF6F80"/>
<path opacity="0.1" d="M264.121 126.182C264.573 126.182 264.94 125.816 264.94 125.365C264.94 124.914 264.573 124.549 264.121 124.549C263.669 124.549 263.303 124.914 263.303 125.365C263.303 125.816 263.669 126.182 264.121 126.182Z" fill="black"/>
<path d="M264.121 125.849C264.573 125.849 264.94 125.484 264.94 125.033C264.94 124.582 264.573 124.216 264.121 124.216C263.669 124.216 263.303 124.582 263.303 125.033C263.303 125.484 263.669 125.849 264.121 125.849Z" fill="#3F3D56"/>
<path opacity="0.1" d="M265.628 161.536C266.08 161.536 266.447 161.17 266.447 160.719C266.447 160.268 266.08 159.902 265.628 159.902C265.176 159.902 264.809 160.268 264.809 160.719C264.809 161.17 265.176 161.536 265.628 161.536Z" fill="black"/>
<path d="M265.628 161.2C266.08 161.2 266.447 160.834 266.447 160.383C266.447 159.932 266.08 159.567 265.628 159.567C265.176 159.567 264.809 159.932 264.809 160.383C264.809 160.834 265.176 161.2 265.628 161.2Z" fill="#3F3D56"/>
<path opacity="0.1" d="M264.94 143.859C265.392 143.859 265.758 143.493 265.758 143.042C265.758 142.591 265.392 142.226 264.94 142.226C264.488 142.226 264.121 142.591 264.121 143.042C264.121 143.493 264.488 143.859 264.94 143.859Z" fill="black"/>
<path d="M264.94 143.526C265.392 143.526 265.758 143.161 265.758 142.71C265.758 142.259 265.392 141.893 264.94 141.893C264.488 141.893 264.121 142.259 264.121 142.71C264.121 143.161 264.488 143.526 264.94 143.526Z" fill="#3F3D56"/>
<path d="M283.81 164.059C283.81 164.059 284.368 164.893 283.81 165.268C283.252 165.644 283.865 166.605 283.865 166.605C283.865 166.605 282.473 167.416 283.085 168.151C283.698 168.886 283.31 172.186 283.31 172.186L281.636 174.966C281.636 174.966 281.736 176.748 281.742 179.155C281.742 182.912 281.521 188.193 280.296 190.601L280.46 210.356C280.46 210.356 274.599 212.494 269.694 211.841L268.966 180.141C268.966 180.141 270.027 162.165 270.418 158.717C270.647 156.927 270.741 155.122 270.697 153.318C270.697 153.318 270.531 147.921 269.97 145.42C269.97 145.42 269.363 134.567 269.303 131.563C269.275 130.126 269.351 125.934 269.436 121.947C269.53 117.589 269.636 113.478 269.636 113.478L268.53 104.739C268.53 104.739 269.636 104.63 269.97 105.072C270.119 105.211 270.281 105.336 270.455 105.444C272.368 106.733 279.117 110.695 279.117 110.695C279.117 110.695 282.852 112.177 283.746 114.301C284.641 116.424 285.262 117.93 285.696 118.535C286.129 119.14 286.366 121.984 286.366 121.984C286.366 121.984 287.651 127.217 288.655 128.103C289.658 128.989 290.38 134.615 290.38 134.615L281.512 141.572C281.512 141.572 280.733 153.145 280.566 153.593C280.399 154.04 283.81 164.059 283.81 164.059Z" fill="white"/>
<path d="M284.147 164.059C284.147 164.059 284.701 164.893 284.147 165.268C283.592 165.644 284.198 166.605 284.198 166.605C284.198 166.605 282.807 167.416 283.419 168.151C284.031 168.886 283.643 172.186 283.643 172.186L281.976 174.966C281.976 174.966 282.076 176.748 282.085 179.155C282.085 182.912 281.864 188.193 280.639 190.601L280.806 210.356C280.806 210.356 274.945 212.494 270.039 211.841L269.315 180.141C269.315 180.141 270.373 162.165 270.767 158.717C270.996 156.927 271.088 155.122 271.043 153.317C271.043 153.317 270.876 147.921 270.318 145.42C270.318 145.42 269.712 134.567 269.648 131.563C269.621 130.126 269.697 125.934 269.782 121.947C269.876 117.589 269.982 113.478 269.982 113.478L268.521 104.621C268.521 104.621 269.982 104.621 270.318 105.072C270.466 105.213 270.629 105.338 270.803 105.444C272.714 106.733 279.462 110.695 279.462 110.695C279.462 110.695 283.189 112.177 284.098 114.301C285.008 116.424 285.614 117.93 286.048 118.535C286.481 119.14 286.718 121.984 286.718 121.984C286.718 121.984 288.003 127.217 289.007 128.103C290.01 128.989 290.735 134.615 290.735 134.615L281.867 141.572C281.867 141.572 281.087 153.145 280.918 153.593C280.748 154.04 284.147 164.059 284.147 164.059Z" fill="white"/>
<path opacity="0.1" d="M273.526 116.046L274.329 118.375L270.112 122.61C270.206 118.251 270.312 114.14 270.312 114.14L268.851 105.287C268.851 105.287 270.312 105.287 270.649 105.738C270.797 105.878 270.959 106.003 271.134 106.11L274.718 116.421L273.526 116.046Z" fill="black"/>
<path d="M273.183 115.378L273.987 117.704L269.773 121.938C269.864 117.58 269.973 113.469 269.973 113.469L268.508 104.612C268.508 104.612 269.973 104.612 270.306 105.063C270.455 105.203 270.617 105.328 270.791 105.435L274.396 115.756L273.183 115.378Z" fill="white"/>
<path opacity="0.1" d="M273.183 92.3317C273.185 93.4216 273.013 94.5048 272.674 95.541C272.617 95.5505 272.559 95.5484 272.502 95.5349C272.446 95.5214 272.393 95.4967 272.347 95.4623C272.265 92.74 270.925 90.1811 269.272 88.0062C268.808 87.3503 268.245 86.7689 267.605 86.2821C266.956 85.7966 266.15 85.5691 265.343 85.6439C264.434 85.7679 263.63 86.3849 262.711 86.4636C261.499 86.5634 260.413 85.7255 259.21 85.6862C258.72 85.6903 258.237 85.7987 257.793 86.0043C257.35 86.2098 256.955 86.5077 256.636 86.878C256.003 87.6227 255.533 88.4913 255.256 89.4279C254.78 90.8491 254.52 92.3337 254.486 93.832C254.471 94.6789 254.389 95.7406 253.601 96.0491C253.66 95.4267 253.59 94.7987 253.393 94.2051C253.196 93.6114 252.878 93.0651 252.458 92.6009L252.44 92.5797C252.44 92.495 252.44 92.4164 252.44 92.3317C252.44 89.5865 253.533 86.9537 255.478 85.0125C257.424 83.0714 260.063 81.9809 262.815 81.9809C265.566 81.9809 268.205 83.0714 270.151 85.0125C272.096 86.9537 273.189 89.5865 273.189 92.3317H273.183Z" fill="black"/>
<path d="M267.12 75.898C265.544 75.1587 263.752 75.0188 262.081 75.5048C261.241 75.7528 260.45 76.1551 259.598 76.3578C257.779 76.7964 255.656 76.3215 254.095 77.3832C253.228 77.9882 252.706 78.944 252.221 79.8756L251.009 82.1775C250.348 83.4388 249.681 84.7214 249.405 86.1097C249.129 87.4981 249.296 89.0529 250.178 90.172C250.818 90.9827 251.77 91.4939 252.467 92.2591C252.886 92.7257 253.203 93.2737 253.4 93.8688C253.596 94.4638 253.666 95.0929 253.607 95.7165C254.395 95.414 254.474 94.3462 254.492 93.4993C254.526 92.0011 254.786 90.5164 255.262 89.0952C255.539 88.1586 256.009 87.2901 256.642 86.5453C256.961 86.1746 257.355 85.8763 257.799 85.6702C258.243 85.4641 258.726 85.3551 259.216 85.3505C260.428 85.3929 261.517 86.2307 262.717 86.1279C263.627 86.0523 264.434 85.4352 265.349 85.3112C266.156 85.235 266.963 85.4626 267.611 85.9494C268.252 86.4347 268.813 87.0163 269.275 87.6736C270.931 89.8514 272.274 92.3983 272.353 95.1297C272.695 95.3777 273.189 95.051 273.359 94.6638C273.529 94.2767 273.535 93.8229 273.75 93.4539C273.999 93.0274 274.475 92.7975 274.848 92.4769C275.794 91.6633 276.03 90.293 275.994 89.0498C275.958 87.8066 275.715 86.5453 275.951 85.3233C276.094 84.5762 276.415 83.8714 276.591 83.1303C276.767 82.3892 276.788 81.5574 276.373 80.9192C275.767 79.9845 274.49 79.797 273.377 79.7093C272.113 79.6004 270.982 79.7395 270.176 78.6778C269.796 78.1245 269.37 77.6044 268.902 77.1231C268.736 76.9628 267.12 75.9646 267.12 75.898Z" fill="#512E4E"/>
<path opacity="0.1" d="M234.158 139.685L230.992 133.844L229.989 142.858C229.989 142.858 230.547 146.863 230.435 147.477C230.322 148.091 232.721 153.596 232.721 153.596C232.721 153.596 240.643 167.676 243.878 168.399L254.792 160.607L251.894 156.935C251.894 156.935 250.89 156.545 250.639 156.935C250.639 156.935 245.254 147.697 244.699 147.032C244.144 146.367 244.251 145.027 244.251 145.027C244.251 145.027 243.414 144.137 243.693 143.302C243.972 142.468 242.092 139.576 242.092 139.576L243.82 137.964L234.158 139.685Z" fill="black"/>
<path d="M231.159 133.175L230.322 133.844L229.319 142.858C229.319 142.858 229.877 146.863 229.765 147.477C229.652 148.091 232.054 153.596 232.054 153.596C232.054 153.596 239.973 167.676 243.208 168.399L254.14 160.607L251.239 156.935C251.239 156.935 250.235 156.545 249.984 156.935C249.984 156.935 244.602 147.697 244.044 147.032C243.487 146.367 243.599 145.027 243.599 145.027C243.599 145.027 242.762 144.137 243.041 143.302C243.32 142.468 241.422 139.576 241.422 139.576L243.15 137.964L231.159 133.175Z" fill="white"/>
<path opacity="0.1" d="M283.085 168.499C283.692 169.234 283.31 172.537 283.31 172.537L281.636 175.299C281.636 175.299 281.736 177.083 281.742 179.491L278.929 180.368C278.674 180.447 278.404 180.465 278.141 180.419C277.879 180.373 277.631 180.265 277.418 180.104C277.206 179.943 277.035 179.733 276.92 179.493C276.805 179.253 276.75 178.989 276.758 178.723L277.246 163.115L283.81 165.616C283.252 166.003 283.865 166.953 283.865 166.953C283.865 166.953 282.473 167.764 283.085 168.499Z" fill="black"/>
<path d="M283.419 168.166C284.025 168.898 283.643 172.201 283.643 172.201L281.976 174.966C281.976 174.966 282.076 176.748 282.085 179.155L279.22 180.048C278.971 180.125 278.707 180.143 278.45 180.098C278.193 180.053 277.951 179.948 277.743 179.791C277.535 179.634 277.368 179.429 277.256 179.194C277.144 178.96 277.089 178.701 277.097 178.441L277.586 162.779L284.146 165.287C283.586 165.674 284.198 166.624 284.198 166.624C284.198 166.624 282.806 167.431 283.419 168.166Z" fill="white"/>
<path d="M285.596 160.719C285.596 160.719 285.15 163.559 284.034 163.726C282.919 163.892 282.418 168.32 281.306 168.166C280.193 168.012 280.93 164.046 280.969 163.278C281.009 162.51 279.756 159.328 280.69 158.605C281.624 157.882 284.595 158.605 284.595 158.605L285.596 160.719Z" fill="#CF6F80"/>
<path opacity="0.1" d="M287.955 138.85L290.056 134.615C290.056 134.615 290.895 137.843 290.895 139.567C290.895 141.291 292.066 141.46 292.066 141.46C292.066 141.46 293.348 142.973 292.672 144.077C291.996 145.181 291.726 147.915 291.726 147.915C291.726 147.915 291.947 153.145 290.944 153.868C289.94 154.591 289.716 156.318 289.716 156.318C289.716 156.318 287.876 159.6 287.933 160.38C287.991 161.161 285.368 166.445 285.368 166.445C285.368 166.445 286.651 159.878 279.177 157.041C279.177 157.041 279.12 154.815 279.678 154.204C280.235 153.593 281.106 153.296 280.56 150.223C280.014 147.15 280.402 143.445 280.402 142.704C280.402 141.962 282.076 137.344 282.076 137.344L287.955 138.85Z" fill="black"/>
<path d="M288.888 134.01L290.726 134.615C290.726 134.615 291.565 137.843 291.565 139.567C291.565 141.291 292.736 141.46 292.736 141.46C292.736 141.46 294.018 142.973 293.342 144.077C292.666 145.181 292.393 147.915 292.393 147.915C292.393 147.915 292.617 153.145 291.614 153.868C290.61 154.591 290.401 156.318 290.401 156.318C290.401 156.318 288.561 159.6 288.618 160.38C288.676 161.161 286.05 166.445 286.05 166.445C286.05 166.445 287.333 159.878 279.859 157.041C279.859 157.041 279.805 154.815 280.363 154.204C280.921 153.593 281.791 153.296 281.245 150.223C280.699 147.15 281.087 143.445 281.087 142.704C281.087 141.962 282.761 137.344 282.761 137.344L288.888 134.01Z" fill="white"/>
<path opacity="0.1" d="M248.298 243.771C248.298 243.771 251.227 241.935 253.149 243.269C255.071 244.603 248.298 243.771 248.298 243.771Z" fill="black"/>
<path opacity="0.1" d="M271.061 238.093C271.061 238.093 273.653 237.761 275.83 240.099C278.007 242.437 271.061 238.093 271.061 238.093Z" fill="black"/>
<g opacity="0.1">
<path opacity="0.1" d="M274.848 91.8114C274.475 92.1351 273.996 92.3619 273.747 92.7884C273.535 93.1544 273.529 93.6081 273.359 93.9983C273.189 94.3885 272.695 94.7122 272.35 94.4641C272.271 91.7418 270.928 89.1859 269.275 87.008C268.813 86.3517 268.252 85.7711 267.611 85.2869C266.962 84.7991 266.155 84.5704 265.346 84.6457C264.437 84.7697 263.636 85.3867 262.718 85.4654C261.505 85.5652 260.416 84.7273 259.213 84.688C258.724 84.6917 258.241 84.8 257.798 85.0056C257.354 85.2112 256.96 85.5093 256.642 85.8798C256.009 86.6246 255.539 87.4931 255.262 88.4297C254.786 89.8509 254.526 91.3355 254.492 92.8338C254.474 93.6777 254.395 94.7303 253.613 95.0449C253.631 95.2694 253.631 95.495 253.613 95.7194C254.404 95.417 254.483 94.3492 254.501 93.5023C254.535 92.004 254.795 90.5194 255.271 89.0982C255.548 88.1616 256.018 87.293 256.651 86.5483C256.969 86.1778 257.363 85.8796 257.807 85.6735C258.25 85.4674 258.733 85.3583 259.222 85.3535C260.435 85.3958 261.526 86.2337 262.727 86.1308C263.636 86.0552 264.443 85.4382 265.355 85.3142C266.163 85.2381 266.971 85.4657 267.62 85.9524C268.261 86.4376 268.823 87.0193 269.284 87.6765C270.937 89.8544 272.28 92.4012 272.359 95.1326C272.704 95.3807 273.199 95.054 273.368 94.6668C273.538 94.2796 273.544 93.8259 273.756 93.4569C274.005 93.0304 274.484 92.8005 274.857 92.4799C275.803 91.6662 276.039 90.296 276.003 89.0528C276.003 89.0135 276.003 88.9772 276.003 88.9379C275.942 90.0207 275.654 91.1187 274.848 91.8114Z" fill="black"/>
<path opacity="0.1" d="M252.464 91.5997C251.77 90.8344 250.818 90.3202 250.178 89.5096C249.638 88.794 249.33 87.9305 249.296 87.0353C249.201 88.1547 249.514 89.2708 250.178 90.178C250.818 90.9887 251.77 91.4999 252.464 92.2651C253.134 93.0133 253.538 93.9622 253.61 94.9633C253.656 94.3545 253.578 93.7429 253.381 93.1649C253.184 92.587 252.872 92.0546 252.464 91.5997Z" fill="black"/>
<path opacity="0.1" d="M276.591 82.4648C276.412 83.2059 276.094 83.9107 275.949 84.6578C275.861 85.163 275.83 85.6763 275.855 86.1883C275.865 85.8991 275.896 85.6109 275.949 85.3263C276.094 84.5791 276.412 83.8744 276.591 83.1333C276.694 82.7243 276.728 82.3011 276.691 81.881C276.672 82.0777 276.638 82.2728 276.591 82.4648Z" fill="black"/>
</g>
<path opacity="0.1" d="M40.2415 253.744C56.5572 253.744 69.7837 251.624 69.7837 249.01C69.7837 246.395 56.5572 244.276 40.2415 244.276C23.9258 244.276 10.6993 246.395 10.6993 249.01C10.6993 251.624 23.9258 253.744 40.2415 253.744Z" fill="#005BEA"/>
<path d="M41.1935 158.324H39.2926V201.024H41.1935V158.324Z" fill="#535461"/>
<path d="M53.142 200.897L53.0207 202.821L52.854 205.544L52.7842 206.675L52.6144 209.397L52.5417 210.528L52.3749 213.251L50.4558 244.125C50.3739 245.453 49.7873 246.7 48.8155 247.612C47.8436 248.524 46.5598 249.031 45.2259 249.031H35.2602C33.9226 249.031 32.6354 248.521 31.6629 247.605C30.6904 246.689 30.1062 245.436 30.0303 244.104L28.1112 213.229L27.9444 210.507L27.8747 209.376L27.7019 206.654L27.6321 205.522L27.4654 202.8L27.3441 200.876C27.3231 200.508 27.3776 200.138 27.5041 199.791C27.6307 199.444 27.8267 199.126 28.0803 198.857C28.3338 198.588 28.6396 198.373 28.979 198.226C29.3184 198.079 29.6844 198.002 30.0546 198H50.4346C50.8064 198.002 51.1739 198.08 51.5144 198.229C51.855 198.378 52.1614 198.594 52.415 198.866C52.6685 199.137 52.8638 199.457 52.9888 199.807C53.1138 200.156 53.1659 200.527 53.142 200.897Z" fill="#3F3D56"/>
<path d="M53.0207 202.818L52.8509 205.534H27.6321L27.4623 202.818H53.0207Z" fill="#9D9CB5"/>
<path d="M52.7812 206.666L52.6145 209.382H27.8717L27.7019 206.666H52.7812Z" fill="#9D9CB5"/>
<path d="M52.5417 210.516L52.3749 213.23H28.1112L27.9414 210.516H52.5417Z" fill="#9D9CB5"/>
<path d="M24.573 174.331C35.6453 182.322 40.2567 194.821 40.2567 194.821C40.2567 194.821 26.9166 194.364 15.8413 186.372C4.76604 178.381 0.14856 165.892 0.14856 165.892C0.14856 165.892 13.4886 166.339 24.573 174.331Z" fill="#005BEA"/>
<path d="M0.14856 165.892C0.14856 165.892 13.9949 173.559 18.4366 179.908C22.8782 186.257 40.2446 194.827 40.2446 194.827" stroke="#535461" stroke-width="2" stroke-miterlimit="10"/>
<path d="M31.7069 158.233C37.7342 162.579 40.2446 169.382 40.2446 169.382C40.2446 169.382 32.9682 169.134 26.956 164.787C20.9439 160.441 18.4184 153.635 18.4184 153.635C18.4184 153.635 25.6827 153.883 31.7069 158.233Z" fill="#005BEA"/>
<path d="M18.4184 153.635C18.4184 153.635 25.9555 157.809 28.3749 161.264C30.7943 164.718 40.2446 169.382 40.2446 169.382" stroke="#535461" stroke-width="2" stroke-miterlimit="10"/>
<path d="M49.0005 169.037C42.0788 176.627 40.6144 186.545 40.6144 186.545C40.6144 186.545 50.3739 184.155 57.2895 176.563C64.2051 168.971 65.6756 159.056 65.6756 159.056C65.6756 159.056 55.9222 161.448 49.0005 169.037Z" fill="#005BEA"/>
<path d="M65.6816 159.059C65.6816 159.059 56.665 166.838 54.3729 172.198C52.0808 177.558 40.6144 186.545 40.6144 186.545" stroke="#535461" stroke-width="2" stroke-miterlimit="10"/>
</g>
<defs>
<linearGradient id="paint0_linear" x1="141.141" y1="252.739" x2="141.141" y2="78.0123" gradientUnits="userSpaceOnUse">
<stop stop-color="#808080" stop-opacity="0.25"/>
<stop offset="0.54" stop-color="#808080" stop-opacity="0.12"/>
<stop offset="1" stop-color="#808080" stop-opacity="0.1"/>
</linearGradient>
<linearGradient id="paint1_linear" x1="57689.5" y1="163747" x2="57689.5" y2="49222.2" gradientUnits="userSpaceOnUse">
<stop stop-color="#808080" stop-opacity="0.25"/>
<stop offset="0.54" stop-color="#808080" stop-opacity="0.12"/>
<stop offset="1" stop-color="#808080" stop-opacity="0.1"/>
</linearGradient>
<clipPath id="clip0">
<rect width="354" height="261" fill="white"/>
</clipPath>
</defs>
</svg>
